<?xml version="1.0" standalone="no"?>
<!DOCTYPE svg PUBLIC "-//W3C//DTD SVG 20010904//EN"
 "http://www.w3.org/TR/2001/REC-SVG-20010904/DTD/svg10.dtd">
<svg version="1.0" xmlns="http://www.w3.org/2000/svg"
 width="1280.000000pt" height="1122.000000pt" viewBox="0 0 1280.000000 1122.000000"
 preserveAspectRatio="xMidYMid meet">
<metadata>
Created by potrace 1.15, written by Peter Selinger 2001-2017
</metadata>
<g transform="translate(0.000000,1122.000000) scale(0.100000,-0.100000)"
fill="#000000" stroke="none">
<path d="M9470 11203 c-111 -15 -130 -26 -130 -72 0 -13 -7 -33 -16 -42 -15
-17 -15 -21 0 -53 13 -28 16 -70 15 -248 -1 -117 -4 -223 -7 -235 -6 -21 -18
-13 -147 96 -77 66 -146 130 -152 143 -7 13 -13 61 -13 108 -1 94 -13 92 -25
-5 -4 -33 -13 -72 -21 -86 -7 -15 -69 -75 -136 -133 -160 -137 -235 -206 -226
-206 4 0 31 19 60 43 29 24 82 66 117 95 l65 52 125 0 126 -1 55 -39 c101 -73
385 -347 582 -563 159 -172 496 -571 578 -682 153 -209 564 -815 601 -888 12
-22 27 -58 35 -80 13 -36 13 -39 -4 -32 -31 12 -224 53 -352 74 -276 46 -1049
116 -1440 131 -530 21 -1353 11 -1745 -20 -392 -32 -426 -33 -436 -23 -13 13
90 177 180 288 31 39 76 97 101 130 88 119 351 446 456 566 197 226 287 322
557 597 148 151 266 277 262 280 -3 3 -117 -105 -253 -241 l-248 -247 -105 6
c-57 3 -151 14 -209 24 -202 35 -617 111 -870 160 -140 27 -291 54 -335 60
-44 6 -206 36 -360 65 -154 30 -323 61 -375 70 -52 9 -212 39 -355 66 -423 82
-518 98 -536 88 -9 -4 -76 -106 -150 -226 -73 -120 -226 -366 -339 -548 -235
-376 -335 -544 -327 -551 3 -3 38 48 78 113 40 65 142 228 227 363 86 135 232
367 324 515 93 149 175 276 183 284 7 7 18 11 23 7 14 -9 -74 -168 -220 -396
-208 -326 -442 -699 -648 -1031 -193 -312 -717 -1135 -1084 -1702 -104 -161
-218 -343 -255 -406 -36 -62 -71 -115 -77 -118 -7 -2 -22 -3 -33 -1 -19 3 2
40 167 303 196 313 210 335 623 975 220 341 525 821 598 943 38 62 17 41 -32
-32 -39 -59 -52 -71 -79 -75 -41 -6 -342 -21 -905 -46 -557 -25 -635 -30 -652
-44 -7 -6 -66 -76 -129 -156 -64 -80 -222 -273 -352 -430 -129 -157 -266 -323
-304 -370 -38 -47 -93 -110 -123 -140 -73 -75 -210 -236 -293 -345 -57 -75
-325 -406 -378 -467 -9 -11 -11 -18 -4 -18 13 0 294 327 476 554 71 88 155
190 186 226 31 36 90 106 131 156 41 50 184 223 320 385 135 162 290 351 346
420 56 69 115 137 132 151 37 32 37 32 506 53 307 14 579 29 944 52 95 6 103
5 100 -11 -5 -20 -223 -365 -421 -664 -174 -264 -498 -764 -736 -1138 l-186
-292 -64 -6 c-35 -4 -190 -11 -345 -16 -155 -5 -374 -14 -487 -20 -178 -8
-504 -20 -898 -34 -62 -2 -115 1 -118 5 -3 5 18 41 46 80 55 76 60 108 7 44
-54 -64 -107 -137 -107 -145 0 -11 57 -30 90 -30 29 0 63 -31 78 -71 6 -14 8
-63 5 -110 -4 -83 4 -118 26 -105 7 5 11 46 11 111 0 100 1 105 23 109 46 10
161 17 442 26 160 5 460 17 668 25 208 8 465 17 572 19 l194 4 6 -30 c4 -16 4
-154 1 -306 -3 -152 -11 -522 -17 -822 l-12 -545 -24 -46 c-13 -25 -38 -54
-55 -64 -44 -25 -175 -33 -753 -41 -491 -7 -752 -20 -443 -23 86 0 159 -5 162
-9 2 -4 -2 -280 -9 -612 -8 -333 -15 -678 -15 -767 0 -118 -3 -164 -12 -170
-7 -4 -47 -10 -88 -13 l-75 -5 -3 -42 c-2 -26 1 -43 7 -43 6 0 11 10 11 23 0
12 4 27 8 33 5 7 153 8 497 3 707 -11 845 -11 845 1 0 6 -24 10 -53 10 -84 0
-104 34 -114 189 -3 53 -10 103 -15 111 -6 10 -7 -21 -4 -83 6 -128 -1 -137
-108 -137 -59 0 -78 -4 -100 -21 -14 -11 -26 -25 -26 -30 0 -16 26 -10 45 11
15 17 31 20 92 20 62 0 76 -3 96 -22 l22 -23 -229 -3 c-177 -2 -234 1 -249 11
-19 12 -20 23 -18 223 1 115 4 224 7 242 l6 32 139 0 139 0 0 -215 c0 -126 4
-215 9 -215 19 0 23 48 20 264 -4 269 11 792 22 824 8 21 14 23 71 20 l63 -3
0 -377 c0 -351 6 -451 19 -346 3 23 9 198 13 388 l8 346 25 31 c24 30 29 32
93 32 l67 1 0 -395 c0 -358 5 -441 24 -373 3 13 6 169 7 348 1 337 5 410 27
418 9 3 12 -81 12 -397 l0 -401 148 0 c81 0 210 -3 288 -7 l141 -6 -5 79 c-4
81 14 567 25 661 3 30 11 53 17 53 9 0 11 -103 8 -391 -3 -227 -1 -394 5 -400
13 -13 423 -25 423 -12 0 17 -39 23 -162 23 -101 0 -119 3 -140 20 -12 11 -34
28 -47 38 l-25 19 21 57 c19 50 19 57 5 54 -41 -8 -53 -108 -18 -147 21 -23
20 -31 -3 -31 -40 0 -42 14 -35 331 6 232 10 298 18 278 6 -14 17 -34 25 -43
12 -14 11 -19 -3 -35 -28 -30 -31 -85 -9 -124 20 -33 20 -34 2 -56 -33 -41
-21 -151 16 -151 18 0 18 5 4 32 -16 30 -13 87 5 107 9 10 16 22 16 28 0 5 11
15 25 21 13 6 30 20 37 31 12 20 13 20 35 -7 l22 -27 -6 47 c-4 36 -1 54 11
74 10 14 16 27 14 30 -9 8 -48 -28 -48 -44 0 -11 -7 -5 -20 16 -11 17 -23 32
-26 32 -4 0 -4 -22 -1 -49 5 -39 2 -52 -12 -65 -26 -23 -38 -20 -56 15 -15 27
-15 33 -1 52 28 40 41 53 69 72 25 16 29 16 46 1 25 -23 45 -21 31 3 -13 26
-13 77 1 103 15 28 3 35 -22 13 -17 -17 -22 -17 -29 -5 -22 34 -12 40 63 35
134 -9 232 -14 286 -15 30 0 51 -3 48 -6 -3 -4 0 -16 8 -28 20 -28 19 -52 -5
-76 -30 -30 -48 -25 -55 14 -5 24 -2 42 11 61 17 27 17 27 -7 23 -33 -4 -48
-62 -28 -104 19 -39 79 -47 103 -13 22 32 27 20 24 -52 -3 -57 -4 -61 -15 -39
-11 27 -43 59 -43 44 0 -4 5 -22 12 -40 10 -28 9 -36 -5 -52 -21 -23 -22 -32
-3 -32 8 0 22 10 30 22 9 12 18 19 21 16 3 -3 5 -39 3 -79 -3 -71 -4 -73 -17
-46 -21 40 -41 35 -34 -7 3 -19 0 -49 -6 -67 -14 -41 -10 -44 22 -18 l27 20 0
-73 0 -73 -20 32 c-27 44 -43 42 -24 -3 14 -32 13 -38 -1 -60 -47 -71 -100
-11 -60 66 9 17 21 30 27 30 9 0 9 3 0 12 -9 9 -17 6 -37 -12 -14 -13 -25 -31
-25 -39 -1 -10 -7 -5 -16 12 -21 38 -46 37 -32 -1 14 -36 5 -73 -22 -90 -27
-17 -38 -9 -46 34 -5 28 -2 42 15 65 17 22 18 29 7 29 -27 0 -46 -30 -46 -73
0 -51 23 -87 54 -87 25 0 66 38 66 61 0 8 9 -5 20 -29 17 -37 23 -42 53 -42
36 0 53 14 74 59 11 24 12 22 10 -24 l-2 -50 -72 -3 c-70 -3 -91 -13 -57 -26
27 -10 93 -7 128 8 l33 14 1 218 c2 254 11 394 24 411 5 7 7 26 3 43 -4 20 -3
30 5 30 9 0 10 -84 5 -354 -5 -223 -4 -359 2 -370 7 -12 12 91 17 316 5 183
11 362 15 398 l6 65 380 -4 c209 -1 383 -6 386 -10 3 -3 3 -73 -2 -156 -4 -82
-13 -343 -18 -580 -6 -236 -14 -443 -19 -460 l-8 -30 -210 0 c-115 0 -281 2
-369 5 l-160 5 -3 -138 c-2 -93 1 -136 8 -132 5 3 10 25 10 49 0 24 3 78 7
121 l6 78 136 -7 c75 -3 307 -11 516 -16 209 -6 408 -13 443 -16 l62 -6 0
-205 c0 -114 3 -203 8 -199 4 4 9 91 12 193 4 161 7 186 23 197 31 23 272 29
1097 26 990 -3 1426 -11 1423 -26 -1 -6 -7 -228 -12 -494 -12 -533 -15 -504
50 -530 25 -11 32 -10 47 3 17 15 19 15 34 1 17 -17 43 -10 32 8 -4 6 1 6 14
-1 27 -15 32 -14 32 4 0 20 -47 38 -85 32 -22 -3 -34 2 -48 19 -10 13 -24 21
-32 18 -24 -10 -28 90 -17 533 5 235 13 552 16 703 3 151 11 381 16 510 12
294 12 360 0 360 -17 0 -20 -60 -30 -553 -5 -268 -12 -492 -15 -497 -10 -17
-141 -12 -155 5 -10 12 -11 66 -6 248 18 584 26 779 36 796 8 16 24 20 97 23
l88 3 65 64 c38 38 87 73 119 88 l54 24 -24 24 c-13 13 -154 112 -314 221
-159 108 -366 249 -460 314 -214 148 -225 155 -225 142 0 -11 91 -76 500 -357
258 -178 418 -291 435 -308 7 -6 -27 -7 -100 -3 -60 3 -378 20 -705 36 -327
17 -770 39 -985 50 -214 11 -462 23 -550 26 -208 7 -238 14 -327 78 -95 68
-572 437 -763 591 -83 66 -282 219 -442 340 -161 120 -291 221 -289 223 2 2
68 -2 147 -7 79 -6 243 -18 364 -26 121 -9 355 -27 520 -40 165 -13 352 -26
415 -30 63 -3 180 -12 260 -20 80 -8 273 -24 430 -35 157 -11 308 -27 336 -35
28 -8 70 -30 95 -48 75 -58 613 -417 623 -417 25 0 -56 60 -367 270 l-332 225
3 280 c5 441 21 828 35 842 9 9 157 12 607 13 l595 1 105 -25 c58 -13 118 -27
134 -32 25 -6 28 -4 23 10 -4 9 -2 16 3 16 6 0 10 9 10 21 0 11 4 28 9 38 9
16 35 18 310 20 304 2 830 -11 1156 -29 99 -6 259 -15 355 -20 294 -16 537
-40 710 -70 91 -16 197 -31 237 -35 40 -4 76 -12 81 -18 15 -18 2 -168 -14
-174 -8 -3 -121 9 -252 26 -344 46 -708 80 -928 88 l-192 6 -27 -27 c-25 -25
-27 -33 -21 -73 3 -25 1 -130 -4 -232 -14 -241 -53 -1831 -72 -2909 l-3 -153
24 -6 c12 -3 168 -6 345 -7 l321 -1 6 215 c4 118 9 337 13 485 3 149 9 353 12
454 l6 184 187 -7 c102 -4 188 -10 190 -12 3 -2 -1 -295 -8 -650 -9 -459 -9
-649 -2 -658 8 -9 57 -15 167 -18 96 -4 160 -10 167 -17 12 -12 11 -488 -1
-519 -5 -13 -158 -14 -1296 -8 -710 3 -1339 9 -1398 13 -71 4 -108 2 -108 -4
0 -6 17 -13 38 -17 20 -3 650 -9 1400 -12 l1364 -7 -8 -141 c-10 -193 -9 -205
17 -232 29 -31 49 -31 49 2 0 14 4 23 10 19 6 -3 10 -17 10 -31 0 -26 25 -43
41 -27 6 6 2 16 -11 28 -28 25 -25 35 8 26 15 -4 37 -3 49 2 16 7 27 6 38 -3
12 -10 15 -10 15 4 0 22 9 20 37 -6 23 -21 23 -21 23 -1 0 14 10 23 33 29 26
8 33 15 35 42 2 20 9 32 18 32 24 0 27 26 6 67 l-20 39 33 39 c41 48 44 65 9
65 -21 0 -24 -4 -19 -19 4 -14 -3 -28 -24 -47 -17 -15 -31 -32 -31 -37 0 -5
12 -23 27 -41 l26 -31 -32 -3 c-33 -3 -34 -6 -14 -58 6 -16 -118 -46 -134 -32
-7 6 -27 8 -45 4 -24 -5 -37 -1 -55 16 -21 19 -27 21 -44 9 -12 -7 -23 -10
-25 -8 -5 5 16 890 21 895 5 6 700 2 776 -4 117 -10 109 -37 109 380 0 194 3
428 7 519 l6 167 56 0 c83 0 431 -29 443 -36 11 -7 4 -1081 -8 -1224 -5 -63 6
-103 23 -86 4 4 9 83 11 174 1 92 9 604 18 1137 8 534 13 1031 10 1105 -3 74
-3 173 2 220 l7 85 66 11 c113 18 114 24 16 153 -41 53 -102 139 -137 191 -35
52 -103 149 -150 215 -48 66 -102 143 -120 170 -19 28 -68 93 -110 145 -42 52
-163 211 -269 353 -107 141 -198 257 -203 257 -16 0 119 -186 398 -550 128
-168 552 -788 570 -834 7 -19 18 -19 -141 -1 -71 8 -211 21 -311 29 -100 9
-212 20 -250 25 -39 6 -160 17 -269 26 -445 33 -487 38 -491 50 -5 13 10 627
26 1035 5 124 12 340 15 480 4 140 9 262 11 270 6 17 -10 37 176 -207 138
-181 238 -298 202 -238 -9 17 -74 109 -144 205 -69 96 -143 201 -164 233 -21
32 -47 62 -58 68 -20 11 -21 18 -16 235 6 259 5 256 97 274 102 20 101 19 101
43 0 12 -15 45 -33 72 -19 28 -56 93 -83 145 -92 178 -500 774 -704 1030 -42
52 -152 183 -244 290 -93 107 -175 208 -183 224 -13 25 -15 94 -15 458 1 413
1 430 21 472 23 46 27 76 11 76 -5 0 -10 16 -10 36 0 45 -53 104 -95 104 -35
0 -28 -20 15 -42 67 -34 65 -76 -3 -50 -59 22 -65 29 -69 70 -3 36 -4 37 -43
39 -22 0 -87 -5 -145 -14z m158 -40 c4 -25 -10 -29 -150 -38 l-98 -7 0 26 c0
21 5 26 26 26 19 0 25 -4 20 -15 -7 -19 4 -19 32 1 34 24 71 33 122 31 38 -2
45 -5 48 -24z m75 -79 c44 -15 65 -30 55 -40 -3 -2 -25 3 -49 12 -36 13 -68
14 -174 9 -71 -3 -137 -8 -145 -10 -18 -5 -47 11 -38 20 9 9 135 22 229 24 46
0 93 -5 122 -15z m-76 -437 c-3 -204 -10 -374 -14 -378 -4 -4 -62 44 -128 107
l-120 115 3 207 c3 254 8 299 33 312 27 15 191 28 213 17 19 -9 19 -22 13
-380z m110 337 l26 -26 -5 -408 c-3 -225 -9 -414 -13 -420 -5 -8 -17 -2 -37
17 -63 59 -61 50 -54 458 4 203 9 378 12 388 8 25 41 21 71 -9z m-690 -264
c12 -10 19 -20 16 -24 -10 -9 -153 -7 -153 2 0 5 16 21 37 35 39 28 49 26 100
-13z m-3936 -325 c68 -14 235 -46 371 -71 136 -24 291 -53 344 -64 52 -11 126
-24 162 -30 37 -6 159 -28 272 -50 113 -22 381 -71 595 -109 215 -39 471 -86
570 -106 152 -30 451 -77 547 -87 27 -3 23 -8 -78 -123 -438 -496 -1004 -1221
-1004 -1286 0 -30 28 -41 132 -50 57 -4 105 -8 106 -9 2 0 2 -117 1 -261 l-3
-260 84 -116 c81 -110 165 -221 406 -536 58 -76 108 -136 111 -133 8 8 -8 30
-170 243 -79 103 -200 267 -270 364 l-127 177 0 255 c0 155 4 258 10 262 5 3
68 14 139 25 166 24 911 36 1565 25 l449 -7 24 -25 c22 -21 24 -29 19 -86 -14
-143 -27 -869 -17 -881 8 -9 76 -15 253 -19 312 -9 466 -20 768 -58 275 -34
410 -61 434 -88 15 -16 15 -44 6 -297 -6 -153 -15 -283 -20 -288 -6 -6 -72 -1
-172 12 -256 35 -715 81 -918 93 -102 5 -248 14 -325 20 -77 5 -430 13 -785
16 l-645 6 -100 120 c-54 66 -101 115 -103 109 -2 -6 33 -58 77 -116 45 -59
81 -112 81 -120 0 -9 -9 -12 -27 -9 -39 7 -304 63 -326 69 -37 11 -220 257
-742 994 -208 294 -422 593 -474 664 -53 72 -154 212 -226 312 -71 100 -179
248 -240 329 -749 1001 -905 1215 -887 1215 5 0 65 -11 133 -25z m-11 -205
c58 -76 187 -249 288 -386 101 -137 235 -316 298 -399 133 -174 268 -364 263
-370 -2 -2 -400 -26 -884 -54 -998 -58 -1011 -59 -996 -74 10 -10 218 -1 911
44 427 27 847 49 933 49 l73 0 60 -82 c34 -46 81 -112 105 -148 24 -36 102
-144 174 -241 71 -96 198 -271 280 -388 204 -289 675 -946 796 -1108 l99 -133
-58 0 c-104 -1 -406 -18 -434 -25 -16 -4 -28 -12 -28 -18 0 -7 86 -8 277 -4
270 7 282 6 428 -19 136 -24 219 -51 188 -61 -7 -3 -70 7 -140 21 -70 13 -141
27 -157 29 -17 3 -138 1 -270 -4 -133 -4 -513 -13 -846 -19 -333 -5 -717 -14
-855 -20 -137 -5 -479 -14 -760 -20 -280 -6 -643 -15 -805 -20 -162 -5 -511
-14 -775 -20 -491 -11 -554 -15 -539 -30 10 -10 704 1 1264 20 168 5 517 14
775 20 259 6 616 17 795 26 397 19 477 19 496 4 12 -10 14 -66 14 -337 0 -179
-5 -413 -11 -519 -9 -158 -9 -197 2 -210 12 -14 7 -15 -41 -10 -30 3 -149 13
-265 22 -115 9 -212 17 -213 19 -21 20 -19 484 3 825 3 47 1 91 -4 99 -10 15
-222 11 -1186 -24 -225 -8 -552 -19 -725 -25 -173 -6 -352 -13 -397 -16 l-83
-6 0 -49 c0 -52 14 -66 24 -23 4 14 12 24 19 21 13 -4 13 -117 -1 -797 -4
-190 -5 -356 -2 -368 5 -23 6 -23 27 -5 22 18 23 25 28 318 4 165 9 334 13
375 l7 75 60 8 c33 4 119 6 190 5 l130 -3 -2 -228 c-1 -125 -6 -234 -10 -242
-9 -16 -427 -348 -460 -366 -13 -7 -25 -10 -28 -8 -3 4 7 613 18 1047 3 133
-8 166 -17 50 -11 -153 -26 -653 -26 -880 0 -130 -3 -243 -6 -252 -3 -8 -57
-57 -120 -107 -102 -82 -128 -109 -107 -109 9 0 114 82 458 355 350 279 494
390 518 398 43 16 6 -21 -125 -126 -310 -246 -1139 -897 -1238 -972 -58 -44
-115 -90 -126 -102 -23 -24 -39 -29 -49 -14 -3 5 113 103 257 217 145 113 265
210 266 215 8 19 -16 7 -88 -47 l-75 -55 -3 148 c-4 176 16 1580 24 1639 l5
42 62 6 c34 3 262 10 507 15 245 6 564 15 710 21 146 5 535 14 865 20 330 5
760 14 955 20 195 6 526 15 736 20 209 5 388 12 397 16 45 17 3 24 -145 24
-182 0 -798 -13 -1398 -30 -385 -10 -887 -23 -1635 -41 -203 -5 -529 -12 -723
-15 l-354 -7 23 44 c62 123 475 754 519 794 11 10 20 28 20 40 0 12 10 37 23
56 93 138 362 561 619 974 466 748 670 1074 786 1255 144 224 252 410 252 435
0 24 18 3 170 -195z m4025 -1641 c298 -12 774 -44 960 -64 385 -43 767 -109
857 -147 79 -34 78 -44 -5 -52 -58 -5 -84 -3 -127 12 -145 50 -327 79 -805
127 -357 35 -494 43 -1100 61 -563 16 -993 11 -1480 -19 -238 -14 -463 -13
-479 3 -19 19 11 27 128 34 61 4 181 13 266 21 451 41 1150 50 1785 24z m660
-139 c83 -5 263 -23 400 -40 138 -16 306 -37 375 -45 201 -25 270 -57 270
-126 0 -40 -18 -45 -114 -30 -211 32 -619 74 -981 101 -148 11 -287 23 -307
26 l-38 6 0 57 c0 32 3 61 8 66 7 7 81 4 387 -15z m52 -179 c73 -4 136 -11
140 -14 9 -10 -78 -8 -327 7 -118 7 -218 12 -221 10 -8 -5 -18 -199 -25 -486
-5 -219 -4 -227 15 -237 11 -6 66 -11 123 -11 57 0 174 -5 261 -11 153 -11
160 -11 179 8 19 19 20 39 27 341 3 176 10 324 15 329 9 8 -1 -581 -11 -655
l-6 -44 -309 4 c-260 2 -310 5 -319 18 -18 27 7 719 27 752 7 11 98 9 431 -11z
m-299 -31 c22 0 23 -3 20 -62 l-3 -63 -52 -3 -53 -3 0 65 c0 67 7 79 45 71 11
-3 30 -5 43 -5z m765 -12 c54 -6 105 -17 114 -23 15 -11 15 -43 4 -366 -9
-271 -15 -357 -25 -367 -21 -21 -315 3 -336 27 -13 15 -14 63 -7 371 4 195 10
361 12 368 5 14 40 13 238 -10z m-582 8 c2 -2 2 -34 1 -70 l-4 -66 -52 0 c-29
0 -57 5 -64 12 -13 13 -17 110 -5 121 7 7 117 10 124 3z m102 -12 l37 -7 0
-58 c0 -56 -1 -58 -30 -64 -37 -8 -39 -22 -5 -31 24 -6 25 -10 25 -75 l0 -69
-49 0 c-28 0 -52 3 -54 8 -3 4 -3 73 0 155 7 162 2 153 76 141z m145 -19 c3
-3 8 -33 10 -67 l5 -61 -39 8 c-21 4 -42 9 -46 11 -5 3 -8 33 -8 66 l0 61 36
-6 c20 -3 39 -9 42 -12z m688 -20 c85 -14 157 -25 159 -25 3 0 5 -10 5 -22 0
-19 -1 -20 -12 -6 -16 21 -305 65 -321 49 -5 -5 -10 -56 -11 -113 -1 -60 -6
-111 -13 -123 -10 -16 -12 3 -13 107 0 69 3 133 6 142 8 21 18 20 200 -9z
m-56 -50 c6 -8 8 -30 4 -54 l-7 -42 -41 3 c-41 3 -41 3 -44 46 -2 24 1 49 7
56 13 15 66 9 81 -9z m107 -15 c2 0 3 -23 3 -51 l0 -51 -32 6 c-39 8 -48 20
-48 67 0 45 4 49 43 38 18 -5 33 -9 34 -9z m81 -59 c-3 -39 -6 -46 -25 -49
-21 -3 -23 0 -23 46 0 50 10 64 38 54 9 -3 12 -20 10 -51z m29 -233 c-1 -51
-3 -10 -3 92 0 102 2 143 3 93 2 -51 2 -135 0 -185z m-1259 200 c5 -72 -9 -90
-66 -86 l-47 3 -3 52 c-3 44 0 53 20 67 13 10 38 16 58 14 34 -3 35 -4 38 -50z
m162 -12 c0 -80 -4 -86 -59 -86 -26 0 -52 5 -59 12 -7 7 -12 38 -12 70 l0 58
65 0 65 0 0 -54z m246 34 c21 0 20 -126 -1 -134 -22 -8 -73 4 -79 19 -2 7 -2
39 1 70 6 57 6 57 36 51 16 -3 36 -6 43 -6z m618 -56 c18 -17 19 -23 10 -87
-6 -40 -10 -47 -35 -52 -42 -9 -45 -23 -7 -33 32 -8 33 -10 36 -63 4 -70 -11
-92 -56 -83 l-32 7 0 157 c0 86 3 160 7 163 12 13 62 7 77 -9z m114 -10 c8 -2
12 -26 12 -74 l0 -70 -28 0 c-49 0 -65 29 -57 99 7 65 8 65 73 45z m82 -19
c19 -23 4 -149 -17 -141 -8 3 -17 6 -19 6 -7 0 -4 136 3 143 10 11 19 8 33 -8z
m-1224 -110 c10 -70 0 -95 -39 -95 -17 0 -42 -3 -54 -6 -22 -6 -23 -4 -23 70
l0 76 54 0 55 0 7 -45z m152 -18 c4 -72 -7 -87 -64 -87 -56 0 -68 20 -58 96
l6 55 57 -3 56 -3 3 -58z m135 44 c4 -4 7 -35 5 -67 l-3 -59 -57 -3 -58 -3 0
56 c0 82 12 99 63 91 23 -4 46 -11 50 -15z m626 -8 c-1 -16 -5 -41 -9 -58 -6
-25 -8 -20 -9 28 0 32 3 57 9 57 6 0 9 -12 9 -27z m-491 -42 c5 -70 -4 -91
-37 -91 -55 0 -61 7 -61 69 0 32 3 61 7 65 4 4 25 6 48 4 40 -3 40 -3 43 -47z
m717 -38 c13 -12 15 -26 11 -52 -3 -20 -6 -46 -6 -59 0 -21 -4 -23 -37 -20
l-38 3 -3 59 c-2 32 -1 65 2 72 7 19 51 17 71 -3z m85 -78 c0 -62 -7 -75 -41
-75 -13 0 -11 124 2 137 25 25 39 2 39 -62z m-1241 2 c12 -15 4 -115 -12 -134
-5 -7 -29 -13 -53 -13 l-44 0 0 74 c0 74 0 75 28 79 54 8 70 7 81 -6z m159
-15 c15 -19 15 -45 1 -94 l-10 -38 -60 0 -60 0 3 67 c3 60 6 69 27 80 30 14
81 6 99 -15z m765 -102 c-5 -83 -3 -113 7 -125 15 -18 2 -38 -18 -26 -9 6 -11
38 -6 139 4 72 11 129 15 126 5 -3 6 -54 2 -114z m-634 96 c7 -8 11 -37 9 -67
-3 -48 -6 -55 -30 -63 -18 -7 -35 -6 -53 2 -23 11 -25 17 -25 77 l0 65 44 0
c25 0 48 -6 55 -14z m132 -17 c5 -8 9 -40 9 -71 l0 -58 -40 0 c-46 0 -46 1
-54 86 l-5 60 41 -2 c22 -1 44 -8 49 -15z m625 -64 c8 -31 -4 -112 -16 -120
-5 -3 -25 -3 -45 1 l-35 6 0 57 c0 65 11 81 57 81 27 0 34 -5 39 -25z m82 9
c20 -6 22 -12 22 -80 0 -65 -2 -74 -18 -74 -10 0 -26 6 -36 13 -31 23 -34 147
-3 147 6 0 22 -3 35 -6z m110 -96 c3 -66 2 -68 -22 -68 -23 0 -24 4 -28 63 -5
73 -3 79 25 75 20 -3 22 -10 25 -70z m-27 -113 c27 -9 48 -19 46 -22 -6 -6
-229 37 -239 46 -14 13 142 -7 193 -24z m-4353 -603 c9 -6 13 -41 15 -113 3
-154 -20 -951 -28 -971 -3 -9 -13 -19 -21 -22 -12 -5 -277 12 -280 17 0 1 2
239 5 528 5 417 9 529 19 542 9 11 34 17 75 20 126 7 202 6 215 -1z m-3722
-88 c-3 -9 -6 -18 -6 -20 0 -2 -41 -4 -90 -4 -50 0 -166 -4 -258 -10 -214 -12
-874 -38 -1242 -49 -266 -8 -330 -5 -330 17 0 10 75 14 800 43 289 11 581 24
650 28 69 4 205 9 304 10 159 1 177 -1 172 -15z m2839 -65 c4 -6 -2 -19 -14
-30 -18 -17 -21 -31 -21 -105 l0 -85 -52 3 -53 3 0 80 0 80 44 5 c25 3 46 11
49 18 6 19 -161 17 -1278 -17 -452 -14 -988 -21 -860 -11 58 4 276 13 485 19
209 7 480 16 603 22 122 5 309 10 415 10 105 1 244 5 307 9 193 11 368 11 375
-1z m-551 -86 c3 -21 6 -62 6 -90 l0 -53 -59 0 c-75 0 -83 9 -79 96 3 76 9 81
89 83 34 1 37 -1 43 -36z m370 21 c12 -11 16 -35 16 -85 l0 -69 -64 0 c-36 0
-67 4 -70 9 -3 5 -3 43 1 85 l6 76 48 0 c30 0 53 -6 63 -16z m4451 -4 c99 -6
190 -13 203 -16 21 -4 22 -9 22 -87 0 -106 -31 -761 -36 -766 -15 -16 -15 53
1 409 15 315 16 403 6 413 -13 13 -288 35 -451 36 -108 1 -119 -5 -121 -58 -1
-20 -5 -47 -9 -61 -6 -17 -8 2 -7 55 l2 80 50 6 c28 4 75 5 105 3 30 -2 136
-9 235 -14z m-4991 -30 c3 -22 9 -58 12 -80 l6 -40 -39 0 c-21 0 -48 -3 -60
-6 -22 -6 -23 -4 -23 68 0 85 8 98 61 98 36 0 37 -2 43 -40z m396 -40 l0 -80
-60 0 -60 0 0 70 c0 69 -12 92 -24 48 -3 -13 -6 -93 -7 -178 -2 -399 -20 -606
-50 -559 -9 14 -3 541 7 697 l6 82 94 0 94 0 0 -80z m-532 -12 l3 -78 -40 0
c-62 0 -71 7 -71 55 0 23 3 57 6 74 6 31 8 32 53 29 l46 -3 3 -77z m-811 60
c16 -20 24 -107 13 -129 -8 -14 -21 -19 -50 -19 l-40 0 0 74 c0 63 3 75 18 79
32 9 50 7 59 -5z m157 -60 c-4 -40 -12 -76 -18 -80 -16 -11 -64 -10 -87 3 -18
9 -20 17 -13 67 3 31 11 63 16 70 6 6 32 12 60 12 l49 0 -7 -72z m296 -9 c0
-70 -2 -80 -16 -75 -9 3 -36 6 -60 6 l-44 0 0 75 0 75 60 0 60 0 0 -81z m77
34 c-4 -27 -9 -181 -13 -343 -7 -296 -13 -345 -40 -319 -11 12 -12 63 -4 304
5 160 10 316 10 348 0 55 1 57 26 57 26 0 26 -1 21 -47z m151 -25 l-3 -73 -57
-3 -58 -3 0 69 c0 38 3 72 7 75 3 4 31 7 60 7 l54 0 -3 -72z m-863 50 c2 -1 1
-33 -2 -70 l-6 -68 -53 0 -54 0 0 65 c0 74 12 88 73 81 21 -2 40 -6 42 -8z
m78 -13 c-2 -11 -8 -188 -15 -394 -12 -378 -15 -401 -50 -401 -7 0 -9 79 -7
239 2 132 0 243 -4 248 -5 4 -34 8 -65 8 l-57 0 -3 64 c-3 74 2 81 65 81 37 0
42 -3 48 -29 3 -15 5 -32 4 -37 -4 -22 2 -54 10 -54 5 0 12 60 16 133 3 72 9
140 12 150 7 26 49 19 46 -8z m412 3 c3 -13 2 -43 -3 -68 l-8 -45 -54 0 -55 0
4 60 c1 33 5 63 8 68 2 4 26 7 53 7 43 0 50 -3 55 -22z m-787 -51 c4 -75 -6
-87 -74 -87 l-54 0 0 69 0 70 43 4 c83 8 82 8 85 -56z m152 6 c0 -32 -4 -64
-8 -71 -5 -7 -32 -13 -63 -15 l-54 -2 -3 73 -3 72 66 0 65 0 0 -57z m6756 42
c76 -9 140 -17 142 -19 2 -2 -2 -136 -8 -297 -6 -162 -14 -405 -17 -541 -4
-181 -9 -251 -18 -258 -9 -8 -67 -7 -192 1 -98 7 -179 13 -180 14 -11 7 30
1069 42 1103 6 16 62 15 231 -3z m-724 -50 c-2 -22 -5 -42 -8 -44 -2 -3 -26
-5 -52 -5 -47 -1 -47 -1 -46 32 3 57 9 63 61 60 l48 -3 -3 -40z m144 21 c3
-13 4 -35 2 -47 -3 -21 -9 -24 -50 -27 -44 -3 -48 -1 -54 22 -3 15 -3 37 0 51
6 22 12 25 51 25 39 0 45 -3 51 -24z m122 14 c8 0 12 -16 12 -45 0 -52 -11
-61 -65 -51 -33 7 -35 9 -35 46 0 43 21 63 55 55 11 -3 26 -5 33 -5z m920 -51
c20 -12 -80 -5 -166 12 -29 6 -60 8 -68 5 -27 -10 -36 -61 -39 -216 -4 -247
-24 -773 -30 -795 -10 -39 7 -46 156 -61 79 -8 148 -19 153 -25 6 -6 5 -9 -2
-9 -32 0 -306 31 -313 36 -17 10 14 1067 32 1090 10 12 250 -19 277 -37z
m-780 -11 c3 -48 3 -48 -28 -48 -49 0 -70 16 -70 54 0 43 6 48 55 44 l40 -3 3
-47z m637 -55 c-7 -40 -22 -56 -43 -48 -8 3 -20 5 -27 5 -17 0 -26 26 -19 56
5 21 12 24 51 24 l45 0 -7 -37z m99 19 c8 -13 -23 -72 -39 -72 -11 0 -15 11
-15 40 0 36 3 40 24 40 14 0 27 -3 30 -8z m-5514 -88 c0 -68 22 -71 30 -3 8
62 14 69 71 69 l49 0 0 -70 0 -69 -122 -3 c-78 -2 -121 -7 -118 -13 3 -6 69
-9 178 -6 121 2 172 0 172 -8 0 -8 -57 -11 -185 -11 l-186 0 3 88 3 87 35 6
c57 9 70 -3 70 -67z m290 0 l0 -77 -45 6 c-26 2 -49 8 -53 11 -4 4 -7 33 -7
64 l0 57 40 6 c22 3 46 7 53 8 9 1 12 -20 12 -75z m5270 48 c0 -9 -5 -24 -10
-32 -7 -11 -10 -5 -10 23 0 23 4 36 10 32 6 -3 10 -14 10 -23z m-5782 -69 c-3
-85 -4 -88 -28 -91 -24 -3 -25 -3 -5 12 19 15 19 15 -10 18 -16 1 -41 2 -55 3
-24 1 -25 4 -28 67 l-3 67 33 4 c18 2 48 5 66 5 l33 2 -3 -87z m4431 -380 c-9
-252 -14 -461 -12 -465 2 -5 11 -8 19 -8 12 0 14 31 14 189 0 160 2 192 16
205 14 14 39 16 182 11 259 -9 311 -14 321 -33 8 -17 -4 -313 -14 -341 -4 -11
-48 -13 -243 -10 -152 3 -239 0 -242 -6 -8 -15 86 -23 301 -24 139 -1 198 2
207 11 8 8 12 48 12 114 0 58 4 106 10 109 6 4 10 -42 10 -130 l0 -136 -167 6
c-339 11 -433 17 -439 27 -9 14 -5 280 7 498 6 96 9 215 9 263 -2 95 8 189 18
183 4 -2 0 -210 -9 -463z m157 410 c-4 -31 -8 -58 -9 -59 -1 -1 -23 -4 -49 -6
l-48 -6 0 64 0 64 56 0 57 0 -7 -57z m-5026 -11 c0 -32 -5 -63 -12 -70 -7 -7
-34 -12 -60 -12 l-48 0 0 70 0 70 60 0 60 0 0 -58z m135 1 c-9 -72 -19 -85
-64 -81 l-36 3 -3 54 c-4 76 -1 81 59 81 l51 0 -7 -57z m145 15 c0 -79 -6 -88
-60 -88 -47 0 -47 0 -54 38 -3 20 -6 49 -6 65 0 26 1 27 60 27 l60 0 0 -42z
m4896 20 c-3 -13 -6 -40 -6 -60 l0 -38 -49 0 c-46 0 -49 1 -55 31 -3 17 -6 44
-6 60 0 29 0 29 61 29 59 0 61 -1 55 -22z m132 -30 c3 -41 0 -49 -22 -64 -16
-10 -35 -14 -50 -10 -20 5 -24 13 -29 58 -2 29 -3 57 0 61 3 4 26 7 51 5 l47
-3 3 -47z m-5982 30 c11 -17 4 -100 -9 -116 -6 -8 -25 -12 -46 -10 -35 3 -36
4 -35 43 1 77 10 95 49 95 18 0 37 -5 41 -12z m152 -37 c6 -80 -1 -91 -58 -91
l-50 0 0 63 c0 35 3 67 7 71 4 4 28 6 53 4 l45 -3 3 -44z m144 42 c2 -5 2 -36
0 -71 l-4 -63 -51 3 -52 3 -3 54 c-4 76 -1 81 57 81 27 0 51 -3 53 -7z m158
-57 l0 -64 -40 -7 c-59 -10 -90 13 -90 64 0 66 5 71 71 71 l59 0 0 -64z m5659
48 c2 -2 0 -25 -5 -52 -8 -44 -11 -47 -43 -50 -20 -2 -37 2 -42 10 -11 16 -12
92 -2 102 7 7 83 -2 92 -10z m-6611 -6 c14 -14 16 -96 3 -116 -4 -7 -33 -16
-64 -19 l-57 -6 0 61 c0 42 5 65 16 76 18 19 85 21 102 4z m160 -55 l-3 -68
-56 -3 c-67 -3 -73 5 -63 85 l6 53 60 0 59 0 -3 -67z m7070 8 c8 -5 12 -23 10
-47 -2 -31 -8 -39 -28 -45 -42 -10 -60 6 -60 56 0 44 1 45 33 45 17 0 38 -4
45 -9z m87 -13 c25 -11 29 -25 19 -65 -8 -28 -41 -37 -54 -14 -8 16 -3 91 6
91 2 0 15 -5 29 -12z m75 -46 c0 -9 -5 -24 -10 -32 -7 -11 -10 -5 -10 23 0 23
4 36 10 32 6 -3 10 -14 10 -23z m-915 -22 c140 -16 127 2 119 -173 -4 -89 -11
-155 -18 -159 -10 -6 -497 1 -505 8 -2 1 0 77 4 168 l7 166 152 0 c83 0 192
-5 241 -10z m-4925 -10 c0 -6 -90 -9 -252 -8 -141 0 -231 4 -203 8 82 11 455
11 455 0z m-710 -17 c-129 -5 -135 -17 -11 -23 l115 -5 -2 -65 c-1 -36 -5
-109 -8 -162 l-7 -98 -59 0 c-33 0 -124 5 -203 11 -139 11 -144 11 -178 -10
-68 -42 -68 -41 -65 147 l3 167 110 7 c160 11 166 15 23 17 -78 0 -128 5 -128
11 0 6 86 9 243 8 133 -1 208 -3 167 -5z m1282 -43 c10 -42 0 -382 -12 -393
-11 -12 -357 14 -375 27 -12 9 -13 42 -8 199 6 180 7 189 27 197 12 4 97 7
191 6 l169 -2 8 -34z m-519 -85 c-1 -60 -5 -148 -9 -194 l-6 -84 -112 7 c-214
12 -391 29 -403 39 -10 7 -13 54 -13 173 l0 163 118 4 c64 1 187 3 272 2 l155
0 -2 -110z m5805 75 c13 0 17 -181 5 -278 l-6 -54 -41 6 c-23 3 -84 10 -138
17 l-96 11 5 157 c2 86 6 161 8 167 2 8 40 5 127 -7 67 -10 129 -19 136 -19z
m197 -280 c92 -11 238 -24 519 -45 109 -8 202 -18 207 -21 5 -3 62 -9 126 -14
133 -11 294 -27 398 -40 54 -7 33 -8 -95 -5 -143 3 -580 39 -1096 90 -186 18
-194 18 -194 1 0 -19 26 -24 185 -36 201 -15 555 -50 590 -59 28 -7 30 -10 28
-52 -3 -61 -9 -410 -11 -608 l-2 -164 -147 7 c-166 7 -550 33 -632 42 -36 4
-50 9 -43 16 10 10 184 2 575 -28 152 -11 202 -12 213 -3 11 9 14 62 14 283 0
149 5 311 11 360 9 74 9 91 -4 103 -10 10 -86 21 -273 38 -377 35 -514 51
-525 62 -6 6 -7 26 -4 47 7 34 10 36 44 36 20 0 72 -4 116 -10z m-287 -76 c91
-10 95 -18 90 -193 -2 -108 -6 -144 -18 -154 -13 -12 -32 -12 -137 1 l-123 15
0 167 c0 92 3 170 8 174 4 4 32 5 62 2 30 -3 83 -8 118 -12z m-6327 -318 c211
-159 452 -344 534 -411 83 -66 220 -176 305 -242 85 -67 175 -140 200 -162
l45 -40 -1500 0 c-1181 0 -1497 2 -1484 12 8 7 249 197 535 423 1041 825 935
745 960 726 11 -9 194 -147 405 -306z m6523 268 c18 -7 21 -55 6 -85 -6 -11
-21 -19 -35 -19 -40 0 -38 -18 5 -31 l40 -12 -6 -56 c-4 -31 -8 -57 -9 -59 -2
-2 -19 0 -39 3 l-36 7 0 129 0 129 29 0 c16 0 36 -3 45 -6z m124 -16 c7 -7 12
-32 12 -56 l0 -43 -42 3 -43 3 -3 53 -3 52 33 0 c19 0 39 -5 46 -12z m148 -11
c1 -1 -2 -24 -8 -50 -9 -46 -10 -47 -48 -47 -21 0 -41 4 -44 9 -3 5 -3 30 1
56 l6 47 45 -6 c25 -3 47 -7 48 -9z m893 -11 c68 -9 109 -19 120 -30 15 -15
16 -75 13 -679 -3 -511 -6 -665 -16 -675 -10 -10 -39 -11 -147 -2 -244 19
-601 40 -824 50 -250 11 -384 25 -402 43 -10 10 -11 66 -5 253 5 132 12 246
17 253 9 16 18 15 518 -21 202 -15 313 -19 323 -13 12 8 15 72 18 410 2 220 8
408 12 419 7 18 16 18 138 12 72 -4 178 -13 235 -20z m-856 -346 c-8 -190 -17
-347 -19 -349 -15 -16 -16 47 -8 346 9 318 14 377 34 356 5 -4 2 -163 -7 -353z
m122 346 c40 -17 40 -17 20 -56 -20 -39 -47 -53 -79 -40 -31 11 -35 52 -10 88
18 26 24 27 69 8z m133 -12 c15 -10 22 -25 22 -48 0 -44 -20 -60 -65 -52 -35
7 -35 7 -35 61 0 53 1 55 28 55 15 0 38 -7 50 -16z m142 -53 c0 -44 -2 -49
-26 -55 -54 -14 -76 10 -66 72 4 30 6 32 48 32 l44 0 0 -49z m-588 -58 c12
-11 18 -30 18 -60 0 -42 0 -43 -34 -43 -25 0 -39 7 -50 22 -43 61 13 129 66
81z m136 -67 l3 -59 -32 7 c-17 3 -38 6 -45 6 -10 0 -14 15 -14 56 l0 55 43
-3 42 -3 3 -59z m192 0 c0 -64 -12 -78 -63 -69 l-37 6 0 52 c0 28 3 55 7 58 3
4 26 7 50 7 l43 0 0 -54z m135 22 c2 -13 1 -39 -3 -58 -8 -34 -10 -35 -52 -35
l-45 0 -3 44 c-5 63 1 71 52 71 39 0 46 -3 51 -22z m120 -40 c-4 -29 -9 -56
-12 -60 -2 -5 -22 -8 -44 -8 l-39 0 0 60 0 60 51 0 51 0 -7 -52z m-567 -60
l122 -12 -6 -195 c-3 -108 -8 -202 -10 -210 -4 -11 -30 -13 -152 -7 -80 4
-152 12 -159 18 -14 11 -19 293 -7 383 l7 47 41 -6 c23 -3 96 -11 164 -18z
m478 -34 c34 -3 67 -9 73 -14 18 -10 16 -390 -2 -407 -9 -9 -49 -8 -172 3 -88
8 -166 17 -174 20 -18 6 -11 356 8 393 13 23 15 23 109 17 54 -4 124 -9 158
-12z m-966 -40 c113 -14 216 -29 228 -35 24 -9 24 -10 17 -132 -3 -67 -7 -236
-9 -375 -2 -156 -7 -257 -13 -263 -7 -7 -78 -5 -224 5 -382 28 -620 38 -834
37 -115 0 -241 2 -279 5 l-69 6 7 217 c14 470 18 542 33 557 12 12 85 13 476
8 409 -4 486 -8 667 -30z m-8010 -568 c0 -2 -55 -48 -121 -102 -105 -85 -120
-100 -104 -109 43 -25 56 -41 50 -58 -7 -16 -35 -17 -374 -17 -278 0 -371 3
-383 13 -14 10 -16 28 -11 119 3 58 9 111 12 116 3 5 130 12 281 17 151 4 334
10 405 14 166 10 245 12 245 7z m2918 -222 c33 -5 38 -16 26 -61 l-6 -23
-1358 0 c-746 0 -1439 3 -1538 7 l-182 6 0 27 c0 31 14 46 50 52 36 6 2968 -2
3008 -8z m517 -19 c160 -7 400 -19 535 -25 221 -10 852 -43 1370 -71 107 -6
199 -14 203 -18 4 -4 -12 -18 -36 -31 l-43 -23 -385 12 c-660 22 -1355 53
-1949 87 -106 6 -150 21 -150 49 0 39 35 41 455 20z m4039 4 c1 -2 -1 -112 -6
-244 -4 -132 -13 -420 -19 -640 -7 -273 -15 -404 -23 -412 -8 -9 -81 -11 -311
-5 l-300 7 1 455 c0 250 4 545 9 654 l7 199 320 -5 c175 -3 320 -7 322 -9z
m600 -34 c76 -8 141 -17 144 -20 14 -14 -17 -15 -133 -3 -105 10 -128 10 -135
-1 -8 -14 -11 -106 -29 -821 -7 -272 -7 -388 1 -397 8 -10 48 -13 150 -13 107
0 139 -3 135 -12 -5 -17 -285 -12 -306 5 -12 10 -13 57 -7 292 3 154 9 433 12
620 3 187 7 346 9 353 5 15 -9 15 159 -3z m-8451 -52 c-95 -2 -251 -2 -345 0
-95 1 -18 3 172 3 190 0 267 -2 173 -3z m8427 -68 l0 -75 -46 0 c-43 0 -46 2
-40 23 3 12 6 46 6 75 l0 52 40 0 40 0 0 -75z m-8983 -87 c-2 -29 -3 -6 -3 52
0 58 1 81 3 53 2 -29 2 -77 0 -105z m984 128 c-15 -18 -135 -30 -162 -15 -35
18 -4 29 90 29 69 0 82 -2 72 -14z m759 -7 c40 -5 -19 -6 -155 -3 -121 3 -240
9 -265 13 -56 11 327 2 420 -10z m1603 1 c-5 -18 -13 -20 -107 -19 -55 0 -306
9 -556 18 l-455 18 562 2 c557 1 561 1 556 -19z m281 -26 l29 -46 -16 -422
c-10 -231 -20 -488 -23 -571 -5 -127 -9 -156 -27 -187 l-21 -38 -76 0 -77 0 3
73 c2 39 8 241 14 447 5 206 13 450 16 542 l7 167 83 -5 c50 -3 84 -1 84 5 0
5 -36 11 -80 13 -128 5 -116 46 -131 -457 -22 -801 -21 -780 -44 -780 -19 0
-20 8 -23 145 -2 80 1 280 7 445 6 165 14 393 17 508 l6 207 112 0 111 0 29
-46z m236 26 c0 -26 -6 -28 -108 -33 -83 -4 -83 -4 -98 25 l-15 28 111 0 c104
0 110 -1 110 -20z m850 -14 c230 -15 323 -24 297 -29 -25 -6 -41 -15 -47 -30
-12 -27 -30 -954 -20 -982 7 -19 8 -18 13 5 3 14 9 232 12 485 4 253 11 468
16 477 9 16 31 18 245 18 145 0 253 4 281 12 35 8 91 8 232 -1 355 -22 343
-21 373 -53 l26 -28 -4 -433 c-6 -476 -14 -618 -41 -691 l-18 -49 -250 7
c-137 3 -586 9 -997 13 l-748 6 0 321 c0 177 5 444 11 594 9 195 9 276 1 284
-18 18 -21 -48 -33 -637 -6 -308 -13 -563 -15 -567 -3 -5 -38 -8 -78 -8 -65 0
-75 3 -97 26 -24 25 -24 29 -27 232 -1 114 1 378 5 587 l8 380 27 42 c15 23
38 44 50 47 41 8 435 -5 778 -28z m4380 -20 c0 -73 -6 -86 -41 -86 l-29 0 0
70 0 70 35 0 35 0 0 -54z m-8916 38 c11 -4 16 -18 16 -43 0 -47 -12 -64 -41
-59 -20 2 -25 10 -27 41 -4 53 15 75 52 61z m286 -305 c-6 -162 -15 -437 -20
-613 -5 -175 -11 -320 -14 -323 -3 -3 -102 -2 -221 2 -175 6 -219 10 -232 23
-16 17 -16 -18 3 714 4 153 10 226 17 221 7 -4 8 -149 3 -459 -5 -313 -4 -454
3 -459 6 -3 11 -3 12 2 0 4 2 100 3 213 2 113 7 213 11 223 13 31 44 35 203
29 l152 -5 -4 -249 c-3 -183 -1 -248 8 -245 12 4 17 122 35 795 10 388 17 460
42 435 6 -6 5 -124 -1 -304z m116 298 c2 -2 1 -20 -3 -40 -5 -34 -8 -37 -39
-37 -33 0 -34 1 -34 38 0 21 3 42 7 46 7 7 61 1 69 -7z m99 -37 c0 -45 0 -45
-35 -45 -32 0 -35 2 -38 33 -5 52 3 64 40 60 32 -3 33 -5 33 -48z m8465 -8 c0
-26 -5 -54 -10 -62 -7 -10 -10 5 -10 53 0 43 4 66 10 62 6 -3 10 -27 10 -53z
m-9040 21 c0 -55 -10 -73 -41 -73 -28 0 -29 2 -29 50 l0 50 35 0 c32 0 35 -3
35 -27z m200 0 c0 -54 -11 -73 -39 -73 -33 0 -51 17 -51 46 0 43 10 54 51 54
36 0 39 -2 39 -27z m100 12 c9 -11 10 -25 4 -48 -9 -28 -14 -32 -44 -32 -32 0
-35 3 -38 33 -2 19 -1 40 2 48 7 19 60 18 76 -1z m364 -7 c12 -16 16 -47 16
-110 l0 -88 -34 0 c-36 0 -46 12 -46 56 0 17 9 30 30 42 36 20 38 30 8 34 -19
2 -24 10 -26 46 -3 36 0 42 17 42 11 0 27 -10 35 -22z m1676 -8 c41 -10 -333
-1 -460 11 -53 5 11 6 170 3 140 -3 271 -9 290 -14z m-1000 -9 c0 -2 -8 -10
-17 -17 -13 -9 -22 -9 -30 -2 -20 16 -15 23 17 23 17 0 30 -2 30 -4z m-60 -68
c0 -32 -17 -63 -35 -63 -16 0 -55 47 -55 67 0 8 12 26 26 40 l27 27 18 -23
c11 -13 19 -34 19 -48z m168 42 c-11 -24 -28 -34 -28 -16 0 5 -3 16 -6 25 -5
12 0 16 20 16 24 0 25 -2 14 -25z m205 -6 c21 -26 22 -51 1 -90 -19 -37 -11
-49 16 -24 27 24 32 17 28 -46 l-3 -54 -15 29 c-13 26 -41 36 -31 11 13 -32
11 -66 -4 -89 -15 -23 -15 -26 -2 -26 9 0 19 5 22 10 14 22 25 8 25 -32 0 -31
-3 -39 -10 -28 -14 22 -17 12 -22 -67 -6 -77 1 -92 19 -45 9 22 11 1 12 -107
l1 -134 -212 8 c-117 4 -215 9 -217 11 -3 3 3 12 12 21 15 16 18 15 37 -2 23
-21 24 -19 9 39 -9 35 -8 50 5 81 20 47 14 56 -18 26 -15 -14 -26 -19 -31 -12
-14 24 -22 9 -17 -34 3 -32 0 -52 -13 -71 -16 -25 -17 -25 -36 -8 -27 24 -25
79 5 115 13 15 26 26 29 23 3 -3 10 3 16 13 27 48 29 48 49 23 11 -14 25 -21
35 -17 13 5 13 10 -5 46 -13 27 -18 50 -13 70 17 81 73 40 61 -44 -9 -54 0
-58 20 -10 13 32 13 39 -2 70 -9 19 -21 35 -28 35 -6 0 -20 21 -32 47 -17 38
-19 52 -11 79 12 39 2 57 -17 32 -11 -16 -15 -16 -34 -2 -26 18 -27 9 -7 -38
14 -34 13 -35 -16 -57 -24 -18 -33 -20 -45 -11 -19 16 -18 70 2 98 13 19 13
22 1 22 -35 0 -54 -65 -33 -115 20 -46 53 -50 93 -12 25 22 25 22 42 -10 17
-33 -16 -83 -34 -53 -6 9 -45 15 -45 7 0 -2 7 -19 16 -37 21 -40 9 -85 -21
-85 -29 0 -42 46 -26 91 14 37 8 55 -11 36 -18 -18 -28 -103 -15 -145 9 -32 8
-41 -6 -55 -16 -15 -17 -1 -17 217 l0 234 20 -26 c27 -34 88 -47 106 -23 10
14 17 15 33 7 37 -20 71 -13 88 18 l17 28 21 -31 c12 -17 31 -32 45 -34 l25
-4 -29 31 c-26 27 -28 34 -20 63 13 44 50 52 60 13 3 -14 4 -42 1 -61 -7 -40
-2 -42 23 -11 l19 22 16 -22 c9 -13 23 -23 30 -23 12 0 12 6 -2 35 -14 29 -15
42 -6 65 9 24 9 30 -3 30 -7 0 -20 -12 -27 -26 l-14 -27 -11 31 c-9 26 -8 32
6 36 31 8 77 -4 95 -25z m-267 -1 c11 -18 5 -71 -10 -86 -16 -16 -46 -6 -47
17 -4 48 11 81 37 81 7 0 16 -5 20 -12z m524 -37 c14 -35 1 -66 -32 -77 -45
-14 -65 61 -26 103 24 26 39 20 58 -26z m1814 -203 c-4 -139 -9 -399 -13 -578
l-6 -325 -77 -3 c-66 -2 -78 0 -85 15 -16 33 21 1109 38 1130 8 8 35 13 80 13
l69 0 -6 -252z m-1354 232 c0 -5 -4 -10 -9 -10 -6 0 -13 5 -16 10 -3 6 1 10 9
10 9 0 16 -4 16 -10z m6990 -6 c58 -3 182 -12 275 -20 94 -7 201 -14 238 -14
l68 0 -3 -102 -3 -103 -135 2 c-136 2 -477 19 -625 31 l-80 7 -3 95 c-4 117 2
124 98 116 36 -3 112 -8 170 -12z m-3080 -14 c0 -29 -125 -41 -202 -19 -70 19
-41 29 82 29 70 0 120 -4 120 -10z m-5980 -70 c0 -49 -1 -50 -30 -50 -19 0
-33 7 -40 19 -24 45 -3 80 48 81 20 0 22 -5 22 -50z m168 3 c-3 -46 -4 -48
-35 -51 l-33 -3 0 50 0 51 36 0 35 0 -3 -47z m112 35 c0 -7 -3 -30 -6 -50 -6
-35 -9 -38 -40 -38 l-34 0 0 50 0 50 40 0 c25 0 40 -5 40 -12z m-500 -44 c0
-44 -1 -45 -27 -42 -25 3 -28 7 -31 46 -3 41 -2 42 27 42 30 0 31 -1 31 -46z
m110 6 c0 -45 -21 -63 -57 -49 -23 8 -28 26 -17 67 5 17 14 22 40 22 33 0 34
-1 34 -40z m-200 -10 c0 -36 -2 -40 -25 -40 -17 0 -29 8 -37 24 -16 35 -4 56
32 56 28 0 30 -2 30 -40z m8890 -35 l0 -65 -45 0 -45 0 0 58 c0 32 3 62 7 65
3 4 24 7 45 7 l38 0 0 -65z m95 -5 l0 -65 -30 0 c-29 0 -30 1 -33 54 -4 70 2
83 35 79 27 -3 28 -4 28 -68z m63 10 c4 -40 -5 -80 -18 -80 -6 0 -10 27 -10
61 0 44 3 60 13 57 6 -3 13 -19 15 -38z m-8744 -187 c-3 -82 -7 -181 -10 -221
l-6 -72 -171 2 -172 3 -7 185 c-4 121 -3 189 4 198 8 9 56 12 179 12 101 0
169 4 169 10 0 16 -69 23 -196 18 -69 -3 -127 -1 -130 4 -3 4 74 8 170 8 l175
0 -5 -147z m376 136 c0 -8 -39 -9 -132 -4 -73 4 -135 9 -137 11 -2 2 57 4 132
4 92 0 137 -4 137 -11z m-2 -204 c2 -93 0 -185 -3 -202 l-6 -33 -142 0 -142 0
7 88 c3 48 7 134 7 193 1 69 5 109 13 117 9 9 49 12 138 10 l125 -3 3 -170z
m8277 142 l110 -12 0 -179 0 -179 -80 2 c-44 1 -104 4 -132 7 l-53 6 0 172 c0
169 5 197 35 195 5 0 60 -6 120 -12z m393 -14 c-43 -2 -113 -2 -155 0 -43 1
-8 3 77 3 85 0 120 -2 78 -3z m129 -403 c-8 -354 -8 -375 9 -387 14 -10 65
-13 214 -11 l195 3 11 380 c6 209 12 382 13 385 1 3 6 -2 11 -10 6 -9 10 -168
10 -397 l0 -383 -307 1 c-373 2 -535 10 -540 26 -3 9 38 10 166 6 l170 -6 9
24 c6 13 13 188 17 389 4 201 10 369 13 374 15 26 17 -55 9 -394z m362 384 c2
-2 -71 -4 -162 -4 -102 0 -167 4 -167 10 0 9 319 3 329 -6z m-506 -21 l97 -6
0 -256 c0 -330 -8 -449 -29 -461 -9 -4 -82 -6 -164 -3 l-147 6 0 180 0 179
157 -3 c119 -3 157 -1 160 9 3 8 -11 12 -49 13 -29 1 -100 4 -158 8 l-105 6 3
159 c1 87 5 163 8 167 6 11 92 11 227 2z m542 -33 c12 -10 15 -39 15 -152 0
-77 -5 -148 -10 -159 -9 -16 -22 -19 -93 -19 -45 0 -126 3 -179 7 l-98 6 0
157 c0 111 4 160 13 169 17 18 329 10 352 -9z m-822 -327 c9 -5 9 -348 0 -381
-6 -23 -7 -24 -123 -20 -84 2 -122 7 -135 18 -16 13 -16 30 -10 200 4 102 10
189 12 194 6 8 240 -1 256 -11z m828 -42 c3 -3 3 -77 0 -164 -5 -125 -9 -160
-21 -167 -19 -13 -330 -1 -347 13 -10 7 -13 54 -13 174 l0 164 188 -7 c103 -4
190 -9 193 -13z m-6141 -501 c0 -19 -7 -20 -110 -20 -85 0 -110 3 -110 13 0
24 12 27 117 27 96 0 103 -1 103 -20z m2433 10 c26 0 37 -4 37 -15 0 -12 -17
-15 -90 -15 -85 0 -90 1 -90 21 0 20 4 21 53 15 28 -3 69 -6 90 -6z"/>
<path d="M5625 8765 c-104 -7 -305 -18 -445 -24 -140 -6 -361 -18 -490 -26
-129 -8 -341 -19 -470 -25 -129 -7 -244 -15 -256 -20 -20 -8 -21 -15 -27 -387
-4 -208 -10 -433 -14 -499 l-6 -122 -141 -7 c-78 -5 -226 -11 -331 -14 -104
-3 -190 -10 -190 -15 0 -5 36 -8 80 -7 142 3 1188 47 1675 70 113 6 288 13
390 16 218 7 504 21 720 35 85 5 274 15 420 21 235 9 296 17 279 33 -3 3 -135
-1 -294 -9 -470 -24 -616 -30 -620 -27 -2 2 -1 226 2 498 5 393 4 496 -7 509
-14 17 -11 17 -275 0z m-385 -55 c0 -5 -17 -10 -37 -9 -31 0 -34 2 -18 9 28
12 55 12 55 0z m494 -6 c11 -4 16 -19 16 -49 0 -40 -2 -43 -31 -49 -52 -10
-134 -7 -147 6 -13 13 -16 57 -4 75 4 6 32 13 62 16 30 2 63 4 72 5 9 1 23 -1
32 -4z m131 -35 c8 -36 1 -46 -40 -51 -26 -3 -30 0 -33 25 -5 43 4 57 37 57
25 0 30 -5 36 -31z m-449 -188 c-3 -108 -9 -319 -13 -468 -3 -150 -10 -273
-14 -273 -18 0 -21 132 -10 390 6 151 14 339 17 417 4 96 10 141 17 136 7 -4
8 -70 3 -202z m114 165 c0 -45 -10 -56 -50 -56 -15 0 -19 10 -22 50 l-3 50 38
0 37 0 0 -44z m-1081 20 c-7 -6 -214 -17 -207 -11 6 6 200 23 207 18 2 -2 2
-5 0 -7z m795 8 c12 -4 16 -20 16 -55 l0 -49 -90 0 -90 0 0 49 c0 46 2 50 28
54 45 7 119 7 136 1z m121 -44 c0 -45 0 -45 -37 -48 -36 -3 -38 -2 -38 28 0
48 17 72 48 68 25 -3 27 -7 27 -48z m-320 6 c9 -46 -2 -75 -30 -82 -36 -9 -45
2 -45 55 0 55 4 61 41 61 24 0 29 -5 34 -34z m-191 18 c12 -4 16 -20 16 -54 0
-41 -3 -49 -22 -53 -30 -8 -34 -3 -42 44 -9 55 9 78 48 63z m74 -448 c-2 -243
-3 -449 0 -459 6 -28 27 -14 30 21 4 39 24 56 57 48 28 -7 29 -15 14 -68 l-10
-38 -115 0 -115 0 3 48 c3 40 6 47 26 50 32 5 55 -16 48 -44 -8 -28 19 -54 28
-27 3 11 8 221 11 468 2 248 4 451 5 453 0 2 5 0 12 -4 8 -5 10 -122 6 -448z
m-160 392 l-3 -53 -73 -9 c-41 -4 -78 -4 -82 0 -5 5 -12 33 -16 62 l-7 52 92
0 92 0 -3 -52z m-218 9 c0 -60 -53 -82 -65 -27 -8 37 8 60 41 60 20 0 24 -5
24 -33z m-252 -24 c-4 -57 -19 -67 -120 -77 l-68 -7 0 50 c0 27 5 53 10 56 10
6 110 21 158 24 21 1 23 -2 20 -46z m102 -4 c0 -49 -1 -50 -27 -47 -32 3 -40
28 -24 71 7 17 18 27 31 27 17 0 20 -6 20 -51z m51 -210 c-1 -366 -12 -679
-24 -679 -7 0 -8 154 -3 456 7 419 10 493 23 480 2 -2 4 -118 4 -257z m-465 2
c-4 -119 -9 -322 -12 -451 -3 -129 -9 -239 -13 -243 -9 -9 -5 493 5 782 5 122
9 160 17 146 7 -12 8 -91 3 -234z m88 223 c19 -49 2 -94 -35 -94 -27 0 -29 2
-29 43 0 24 5 48 12 55 17 17 45 15 52 -4z m1781 -351 c-4 -181 -9 -331 -12
-335 -2 -5 -18 -8 -35 -8 l-30 0 4 323 c1 177 7 328 11 335 5 6 22 12 39 12
l31 0 -8 -327z m-103 -8 c-2 -176 -8 -324 -13 -329 -5 -6 -49 -12 -98 -14
l-89 -4 -6 78 c-10 113 10 562 25 580 9 11 32 14 98 12 l86 -3 -3 -320z m-235
68 c-4 -137 -7 -285 -7 -330 0 -80 -1 -83 -25 -89 -44 -11 -55 9 -55 100 0
157 22 541 32 554 6 6 22 12 36 12 l25 0 -6 -247z m-276 -93 c-2 -194 -7 -320
-13 -327 -16 -20 -157 -17 -164 2 -11 28 17 629 30 638 6 4 43 6 81 5 l70 -3
-4 -315z m115 33 c-8 -346 -10 -357 -54 -361 l-32 -3 0 63 c0 87 21 560 26
576 2 6 18 12 35 12 l32 0 -7 -287z m-321 266 c4 -6 4 -151 0 -323 l-8 -313
-34 -1 -34 -1 7 312 c4 179 11 317 17 325 12 15 43 16 52 1z m-267 -324 c-4
-228 -9 -319 -18 -330 -9 -11 -34 -15 -91 -15 -93 0 -95 3 -80 115 6 42 11
173 11 291 0 259 -2 254 111 254 l72 0 -5 -315z m105 160 c7 -137 1 -413 -9
-462 -3 -18 -11 -23 -34 -23 -16 0 -31 4 -35 10 -3 5 -1 143 5 307 11 304 12
312 51 313 14 0 17 -22 22 -145z m-581 112 c4 -7 8 -19 8 -27 3 -60 -3 -433
-9 -510 l-6 -95 -75 -7 c-117 -10 -109 -22 -112 163 -4 206 -21 212 -29 11 -3
-81 -9 -153 -13 -160 -4 -7 -16 -12 -27 -12 -19 0 -19 8 -17 313 l3 312 28 3
27 3 0 -120 c0 -68 5 -132 12 -148 l11 -28 8 40 c5 22 8 86 7 143 -1 62 3 107
9 113 14 14 110 28 143 22 14 -2 28 -10 32 -16z m100 -302 c-2 -208 -7 -313
-14 -323 -6 -7 -21 -12 -32 -10 -24 3 -22 -36 -18 399 l2 250 33 -3 32 -3 -3
-310z m151 303 c16 -12 16 -32 7 -238 -5 -124 -10 -260 -10 -302 l0 -78 -29 0
c-16 0 -31 6 -34 13 -2 6 -2 138 1 292 3 218 7 285 18 303 17 25 24 27 47 10z
m1297 -647 c0 -49 -10 -60 -55 -61 -8 0 -12 89 -6 108 1 1 15 2 31 2 29 0 30
-1 30 -49z m-100 -5 c0 -25 -5 -48 -11 -52 -6 -3 -49 -9 -95 -12 l-84 -5 0 57
0 56 95 0 95 0 0 -44z m-520 -26 l0 -60 -75 0 -75 0 0 50 c0 56 2 57 95 63 28
2 51 4 53 5 1 1 2 -25 2 -58z m98 50 c8 0 12 -16 12 -45 0 -40 -3 -47 -26 -56
-15 -5 -28 -8 -29 -7 -1 2 -6 30 -10 62 -7 58 -7 59 17 53 12 -4 29 -7 36 -7z
m192 -39 c0 -41 -3 -51 -20 -56 -28 -9 -48 10 -56 52 -8 40 4 53 49 53 26 0
27 -2 27 -49z m-762 5 c16 -9 16 -58 0 -79 -9 -11 -33 -17 -83 -19 l-70 -3 -3
49 c-2 31 1 52 9 57 15 9 130 6 147 -5z m-473 -61 l0 -50 -87 -3 -88 -3 0 40
c0 43 10 51 63 51 18 0 39 5 47 10 8 6 26 9 40 8 23 -3 25 -7 25 -53z m263 3
c-3 -39 -6 -43 -30 -46 -25 -3 -28 0 -28 27 0 45 10 61 37 61 22 0 24 -3 21
-42z m-154 16 c3 -9 6 -27 6 -40 0 -20 -5 -24 -30 -24 -28 0 -30 2 -30 40 0
36 3 40 24 40 13 0 27 -7 30 -16z m-324 -28 c0 -35 -21 -63 -40 -51 -5 3 -10
24 -10 46 0 35 3 39 25 39 22 0 25 -4 25 -34z"/>
<path d="M3888 5443 c-23 -26 -36 -139 -48 -408 -5 -132 -10 -250 -10 -262 0
-22 -4 -23 -84 -23 l-85 0 6 238 c6 258 1 292 -40 292 -31 0 -54 -26 -62 -73
-4 -21 -10 -134 -14 -250 l-6 -212 -65 0 -65 0 -5 141 c-5 150 -13 174 -55
174 -43 0 -65 -44 -65 -125 0 -40 -3 -99 -6 -133 -6 -54 -9 -61 -32 -67 -79
-20 54 -25 648 -25 632 0 703 4 658 31 -15 8 -18 26 -18 118 0 116 -11 166
-40 181 -15 8 -25 5 -46 -13 -26 -23 -28 -30 -36 -147 -4 -68 -12 -128 -16
-132 -5 -5 -51 -7 -103 -6 l-94 3 -7 205 c-8 221 -6 250 19 250 14 0 15 -19 9
-187 -4 -104 -9 -199 -11 -213 -3 -14 0 -32 5 -40 23 -35 30 20 30 246 0 242
-2 254 -45 254 -28 0 -59 -34 -51 -56 3 -9 1 -23 -6 -32 -9 -10 -14 -75 -18
-216 l-5 -201 -78 -3 -78 -3 2 251 c1 138 -2 250 -7 250 -5 0 -14 -107 -20
-237 -7 -131 -12 -244 -13 -250 -1 -7 -11 -13 -22 -13 l-22 0 5 288 c4 241 8
293 22 327 l18 40 15 -37 c8 -21 20 -38 25 -38 13 0 3 81 -12 110 -13 25 -52
26 -72 3z m-242 -258 c3 -19 1 -94 -5 -166 -6 -73 -11 -163 -11 -200 0 -83
-15 -91 -25 -12 -7 54 0 283 11 371 6 51 21 55 30 7z m-266 -315 c0 -119 -7
-143 -30 -115 -10 12 -11 43 -7 120 3 58 9 110 12 115 17 27 25 -12 25 -120z
m1122 -1 c-3 -96 -12 -132 -28 -116 -9 9 -10 167 -1 200 4 16 13 27 20 24 9
-3 11 -33 9 -108z"/>
<path d="M9365 4498 c-6 -21 -25 -745 -25 -989 0 -169 3 -229 13 -237 18 -15
542 -28 551 -14 11 18 -23 21 -274 25 -130 1 -241 6 -248 11 -9 5 -12 61 -12
213 l0 205 233 -6 c127 -4 247 -9 264 -12 l33 -5 -3 -189 c-1 -140 1 -192 11
-201 6 -7 12 -9 13 -4 4 59 8 255 13 630 4 248 9 465 12 482 10 55 -2 81 -39
87 -17 3 -146 8 -285 11 -201 5 -253 3 -257 -7z m136 -39 c5 -8 7 -23 4 -34
-2 -11 -5 -37 -5 -57 l0 -38 -61 0 -62 0 7 71 c3 39 8 75 11 79 7 11 96 -6
106 -21z m127 15 c20 -6 22 -12 22 -68 0 -35 -5 -67 -12 -74 -7 -7 -34 -12
-61 -12 l-50 0 7 71 c3 39 9 75 12 80 6 10 48 12 82 3z m162 -53 c0 -75 -13
-101 -50 -101 -37 0 -70 16 -70 34 0 7 7 36 15 64 l16 52 44 0 45 0 0 -49z
m130 -36 c0 -75 0 -75 -25 -70 -14 3 -36 7 -49 10 -27 5 -36 29 -36 93 l0 42
55 0 55 0 0 -75z m-430 -166 l0 -80 -52 3 -53 3 -9 46 c-16 85 -2 104 82 108
l32 1 0 -81z m149 72 c11 -7 12 -26 7 -88 l-7 -79 113 -14 c62 -7 124 -17 137
-22 l24 -9 -7 -176 c-4 -98 -8 -178 -9 -179 -1 -1 -119 1 -262 4 l-260 7 -3
175 c-2 156 -1 176 15 187 11 9 53 13 119 13 58 0 106 4 109 10 4 6 -13 10
-44 10 l-51 0 0 66 c0 88 10 104 63 104 23 0 48 -4 56 -9z m131 -20 c5 -11 10
-44 10 -74 l0 -55 -46 -7 c-25 -3 -47 -5 -49 -3 -3 3 -8 117 -6 146 2 21 79
15 91 -7z m140 -65 c0 -41 -4 -77 -9 -81 -6 -3 -28 -3 -50 1 l-41 7 0 73 0 74
50 0 50 0 0 -74z"/>
<path d="M5725 4383 c-8 -23 -34 -694 -35 -909 0 -194 10 -344 22 -344 6 0 8
56 6 138 -3 132 16 851 28 1040 3 55 1 92 -4 92 -6 0 -13 -8 -17 -17z"/>
<path d="M5465 4361 c13 -13 169 -18 175 -6 3 6 -34 11 -90 13 -61 2 -91 -1
-85 -7z"/>
<path d="M7100 4124 c0 -127 -3 -334 -6 -460 -4 -163 -3 -225 5 -214 6 9 11
76 11 170 0 85 5 278 12 428 11 252 10 274 -5 290 -16 15 -17 1 -17 -214z"/>
<path d="M6582 4303 c-12 -23 -21 -864 -9 -856 4 2 7 57 7 122 0 78 4 121 12
129 17 17 419 17 436 0 7 -7 13 -44 14 -87 l1 -76 7 100 c4 55 9 225 11 378 2
232 0 280 -12 288 -8 5 -97 9 -199 9 -102 0 -201 3 -222 6 -29 5 -38 3 -46
-13z m103 -68 l0 -40 -40 0 c-40 0 -40 0 -43 43 l-3 43 43 -3 43 -3 0 -40z
m116 24 c8 -16 8 -28 0 -45 -9 -20 -18 -24 -51 -24 -40 0 -40 0 -40 38 0 47 4
52 46 52 24 0 37 -6 45 -21z m117 -11 c7 -57 -37 -88 -72 -52 -9 8 -16 31 -16
50 0 35 0 35 43 32 37 -3 42 -6 45 -30z m110 20 c7 -7 12 -27 12 -45 0 -29 -4
-33 -35 -39 -22 -4 -41 -2 -50 6 -15 12 -21 71 -8 83 11 12 68 8 81 -5z m-350
-113 c1 -1 3 -19 5 -41 2 -33 -1 -39 -20 -42 -36 -5 -63 15 -63 48 0 33 24 52
55 43 11 -3 21 -6 23 -8z m122 -40 l0 -45 -45 0 -45 0 0 45 0 45 45 0 45 0 0
-45z m110 0 l0 -45 -40 0 -40 0 0 45 0 45 40 0 40 0 0 -45z m128 -2 l3 -43
-50 0 -51 0 0 39 c0 42 12 50 70 47 22 -1 25 -6 28 -43z m0 -240 l3 -133 -226
0 -225 0 0 135 0 135 223 -2 222 -3 3 -132z"/>
<path d="M7090 3386 c0 -25 -6 -48 -14 -55 -17 -14 -25 -4 -37 43 l-7 31 -1
-38 -1 -37 -222 2 -223 3 -6 40 c-4 32 -7 36 -13 20 -4 -11 -14 -34 -21 -51
-8 -18 -11 -35 -8 -38 4 -3 134 -6 290 -6 l283 0 0 65 c0 37 -4 65 -10 65 -5
0 -10 -20 -10 -44z"/>
<path d="M6490 3286 c0 -41 38 -46 341 -46 251 0 312 5 264 24 -8 3 -137 6
-286 7 -252 1 -272 2 -290 20 -25 25 -29 24 -29 -5z"/>
<path d="M3046 4184 c5 -11 8 -41 7 -69 -2 -48 -1 -49 12 -25 22 39 19 87 -7
101 -19 10 -20 9 -12 -7z"/>
<path d="M3116 4168 c-19 -27 -21 -99 -4 -116 18 -18 73 -14 92 7 38 42 28
131 -14 131 -26 0 -25 -8 2 -37 21 -22 21 -26 7 -51 -10 -18 -23 -27 -39 -27
-23 0 -25 4 -24 40 0 22 4 48 8 58 12 25 -10 21 -28 -5z"/>
<path d="M3261 4159 c-23 -38 -26 -61 -11 -90 18 -33 31 -22 24 22 -4 26 -2
49 6 65 21 38 4 40 -19 3z"/>
<path d="M3110 4001 c-22 -41 -5 -123 28 -136 22 -8 27 3 10 22 -26 29 -30 59
-14 97 13 31 13 36 1 36 -8 0 -19 -9 -25 -19z"/>
<path d="M3170 4016 c0 -2 6 -16 14 -31 14 -26 12 -43 -9 -100 -8 -19 -7 -19
14 1 31 30 41 102 16 121 -18 12 -35 17 -35 9z"/>
<path d="M3256 3988 c-26 -36 -16 -88 19 -102 13 -5 14 -2 4 15 -11 21 -9 58
6 92 10 25 -11 21 -29 -5z"/>
<path d="M3040 3831 c0 -5 4 -20 9 -33 6 -16 4 -38 -6 -67 -17 -51 -12 -60 16
-32 34 34 26 141 -11 141 -4 0 -8 -4 -8 -9z"/>
<path d="M3196 3804 c3 -22 1 -57 -4 -77 -12 -44 1 -49 23 -7 20 40 19 73 -5
101 l-20 24 6 -41z"/>
<path d="M3110 3811 c-24 -46 3 -141 40 -141 l21 0 -22 30 c-27 36 -29 83 -4
110 18 19 18 20 -3 20 -12 0 -26 -9 -32 -19z"/>
<path d="M3267 3812 c-23 -25 -32 -78 -17 -97 19 -23 27 -18 22 15 -2 16 1 44
7 61 13 39 10 45 -12 21z"/>
<path d="M3323 3760 c-19 -46 -24 -70 -15 -70 19 0 33 30 30 62 -4 33 -4 33
-15 8z"/>
<path d="M1519 10680 c-19 -16 -42 -29 -51 -30 -20 0 -44 -32 -53 -72 -4 -16
-21 -35 -41 -47 -19 -11 -34 -25 -34 -31 0 -6 7 -6 20 2 16 10 24 10 40 0 19
-11 20 -10 20 24 0 56 40 129 52 94 2 -6 23 10 47 34 51 52 51 70 0 26z"/>
<path d="M1590 10660 c0 -15 7 -20 25 -20 14 0 25 2 25 4 0 2 -11 11 -25 20
-24 16 -25 16 -25 -4z"/>
<path d="M1650 10579 c0 -4 9 -27 20 -52 13 -28 18 -56 14 -71 -5 -23 10 -45
23 -32 11 10 -17 110 -37 136 -11 14 -20 22 -20 19z"/>
<path d="M1316 10454 c-3 -9 -6 -30 -6 -48 0 -19 -11 -46 -25 -66 -20 -27 -25
-46 -25 -90 0 -31 -3 -60 -7 -64 -5 -4 -8 -42 -9 -84 0 -73 -21 -142 -42 -142
-4 0 -27 38 -50 85 -45 92 -67 106 -92 60 -13 -24 -15 -24 -37 -9 -36 23 -64
14 -98 -33 -19 -26 -38 -42 -52 -42 -37 -1 -53 -37 -53 -122 0 -49 -5 -87 -15
-105 -11 -21 -13 -45 -9 -90 6 -59 6 -61 -19 -67 -15 -4 -31 -20 -42 -43 -10
-21 -22 -33 -30 -31 -7 3 -22 -1 -34 -9 -24 -17 -28 -64 -10 -128 10 -37 9
-40 -18 -62 l-28 -22 26 -29 c41 -44 66 -105 58 -137 -7 -26 4 -76 16 -76 3 0
3 16 -1 36 -6 30 -4 36 15 41 26 7 26 7 -5 49 -22 28 -24 37 -14 49 13 16 10
20 -43 56 -14 10 2 29 24 29 24 0 24 21 -1 62 -35 58 -25 118 20 118 23 0 30
5 35 30 7 31 30 50 63 50 17 0 19 6 14 75 -4 61 -2 76 11 80 12 5 14 21 10 88
-6 100 6 140 40 132 19 -5 26 1 45 40 27 57 45 64 84 35 l31 -23 28 34 28 34
1 -33 c0 -21 8 -39 24 -53 13 -11 29 -41 36 -65 7 -25 17 -47 22 -50 13 -8 68
46 68 67 0 28 11 49 26 49 18 0 18 11 -2 60 -15 37 -15 42 0 65 13 20 15 39
10 90 -6 62 -6 65 20 76 24 11 26 16 26 81 0 69 -3 81 -14 52z"/>
<path d="M1766 10265 c9 -22 12 -49 8 -74 -5 -33 -1 -45 29 -89 l34 -50 32 19
c17 10 31 23 31 29 0 5 5 10 10 10 6 0 10 -7 10 -15 0 -9 9 -41 20 -72 11 -32
20 -70 20 -86 0 -18 4 -27 13 -25 20 7 20 45 -2 103 -12 31 -21 66 -21 78 -1
23 -21 57 -36 57 -4 0 -21 -12 -37 -27 l-29 -28 -22 26 c-16 19 -25 46 -30 90
-7 61 -19 89 -37 89 -4 0 -1 -16 7 -35z"/>
<path d="M2018 9854 c-5 -4 -8 -37 -8 -72 0 -48 5 -71 18 -85 13 -14 17 -37
17 -91 0 -82 19 -129 53 -134 23 -4 57 26 98 83 l21 30 24 -29 25 -28 39 16
c37 16 40 16 55 -2 17 -23 60 -47 60 -34 0 16 -76 82 -95 82 -10 0 -28 -9 -40
-20 l-22 -20 -13 24 c-21 41 -37 38 -89 -20 -45 -49 -53 -54 -72 -43 -20 10
-21 17 -16 88 4 65 2 79 -14 97 -13 14 -22 44 -27 93 -4 40 -10 69 -14 65z"/>
<path d="M2464 9395 c2 -11 7 -35 11 -52 4 -18 10 -33 14 -33 5 0 20 -11 35
-25 26 -24 27 -30 21 -77 -7 -47 -6 -50 11 -43 54 21 54 21 54 -42 0 -98 38
-112 85 -30 17 28 35 52 40 51 6 0 23 -29 38 -65 26 -59 27 -71 23 -161 -3
-54 -3 -98 0 -98 6 0 64 122 64 135 0 6 -9 16 -19 22 -12 7 -27 38 -37 74 -16
56 -55 119 -74 119 -4 0 -19 -18 -34 -40 -14 -22 -33 -40 -41 -40 -17 0 -35
39 -35 77 0 15 -7 27 -17 30 -11 2 -29 32 -46 71 -26 65 -103 170 -93 127z"/>
<path d="M115 9214 c-14 -22 -21 -25 -54 -19 -34 6 -38 4 -50 -22 -12 -27 -12
-27 6 -11 14 13 29 16 55 12 28 -5 39 -2 57 17 l21 23 47 -45 c59 -55 63 -60
63 -84 0 -11 12 -31 26 -44 19 -18 24 -32 21 -50 -13 -65 -14 -64 33 -81 51
-18 62 -44 36 -82 -21 -30 -20 -44 4 -68 21 -21 84 -28 95 -10 3 6 16 10 28
10 12 1 37 14 55 29 l34 29 -18 57 c-14 42 -25 60 -43 66 -13 5 -25 8 -27 6
-2 -2 12 -25 31 -52 41 -57 42 -61 15 -68 -11 -3 -20 -12 -20 -21 0 -10 -9
-16 -25 -16 -15 0 -40 -7 -56 -16 -24 -12 -34 -13 -45 -3 -18 15 -18 28 2 51
13 14 15 25 8 50 -9 30 -36 52 -89 72 -6 2 -5 9 3 17 17 19 15 31 -11 71 -13
19 -27 48 -31 64 -7 29 -120 144 -142 144 -7 0 -19 -12 -29 -26z"/>
<path d="M693 9056 c-20 -20 -21 -26 -11 -54 14 -37 -1 -62 -41 -63 -14 0 -35
-4 -46 -9 -14 -6 -4 -9 37 -9 68 -1 84 17 74 80 -5 31 -3 39 9 39 8 0 15 9 15
20 0 25 -9 24 -37 -4z"/>
<path d="M12312 7672 c-10 -9 -29 -43 -42 -74 -12 -32 -33 -64 -46 -73 -13 -8
-24 -22 -24 -31 0 -33 52 22 90 98 l40 77 32 -10 c45 -13 55 -11 38 5 -26 24
-66 28 -88 8z"/>
<path d="M12435 7515 c4 -66 15 -135 27 -174 14 -44 19 -77 14 -107 -3 -26 -2
-44 4 -44 18 0 12 158 -6 186 -13 18 -15 37 -11 75 7 55 -7 147 -24 164 -7 7
-9 -23 -4 -100z"/>
<path d="M12137 7293 c-3 -4 -8 -25 -12 -46 -8 -42 -10 -43 -31 -22 -9 8 -22
15 -29 15 -16 0 -75 -69 -75 -87 0 -6 -12 -25 -26 -43 -18 -20 -34 -63 -51
-128 -13 -53 -33 -109 -43 -124 -12 -16 -20 -42 -19 -65 l0 -38 20 45 c11 25
34 95 51 155 21 76 37 116 53 130 12 11 25 36 29 56 3 20 18 47 32 60 l26 24
20 -24 c28 -36 51 -18 59 45 6 50 5 62 -4 47z"/>
<path d="M12641 7123 c-12 -14 -24 -37 -27 -49 -5 -20 -9 -22 -25 -13 -11 6
-34 9 -52 7 -19 -2 -37 3 -45 12 -11 13 -13 10 -8 -19 3 -18 6 -40 6 -48 0
-11 6 -10 26 6 33 26 60 27 73 4 12 -23 23 -12 41 45 21 65 43 66 75 3 30 -60
55 -151 55 -201 0 -19 5 -42 11 -50 13 -18 4 93 -12 154 -17 65 -71 176 -85
176 -7 0 -22 -12 -33 -27z"/>
<path d="M12781 6708 c1 -75 2 -78 10 -38 11 64 11 120 -1 120 -6 0 -9 -33 -9
-82z"/>
<path d="M2275 6563 c-354 -13 -689 -33 -699 -43 -6 -6 -12 -64 -13 -148 -14
-749 -25 -1055 -39 -1094 -16 -46 -9 -57 36 -58 118 -3 975 2 979 6 2 2 -3 37
-12 77 -15 61 -17 131 -17 457 0 212 5 476 12 588 10 176 10 205 -2 213 -14 8
-47 9 -245 2z m-179 -56 c-12 -18 -17 -120 -26 -586 -7 -310 -16 -574 -21
-585 -10 -22 -4 721 7 1014 l6 155 -28 12 c-27 10 -26 11 24 12 52 1 52 1 38
-22z m-246 3 c-30 -5 -91 -9 -135 -9 -44 -1 -85 -5 -91 -9 -8 -5 -13 -132 -17
-402 -9 -551 -18 -780 -30 -780 -7 0 -8 81 -3 238 3 130 9 386 12 567 3 182 9
344 13 360 7 30 8 30 92 36 46 3 113 5 149 6 l65 0 -55 -7z m626 -24 c3 -7 1
-29 -4 -47 l-8 -34 -177 -3 -177 -2 0 43 c0 24 3 47 7 50 3 4 84 7 180 7 138
0 175 -3 179 -14z m-448 -47 l3 -46 -137 -6 c-75 -4 -163 -7 -196 -7 l-58 0 0
34 c0 18 7 39 15 46 14 12 220 29 320 26 l50 -1 3 -46z m-185 -86 c-34 -2 -93
-2 -130 0 -37 2 -9 3 62 3 72 0 102 -1 68 -3z m431 -19 c12 -5 16 -21 16 -66
l0 -59 -37 3 c-36 3 -38 5 -41 42 -6 76 12 99 62 80z m114 -56 l-3 -63 -37 -3
-38 -3 0 53 c0 61 11 78 52 78 l29 0 -3 -62z m88 39 c3 -13 4 -41 2 -63 -3
-36 -6 -39 -35 -42 l-33 -3 0 59 c0 65 3 72 36 72 16 0 25 -7 30 -23z m-558
-56 l-3 -56 -39 -3 c-39 -3 -39 -3 -32 29 3 17 6 44 6 60 0 21 5 28 23 31 42
7 48 -1 45 -61z m97 4 c0 -55 -2 -60 -24 -63 -36 -6 -44 10 -36 73 6 54 8 56
33 53 26 -3 27 -5 27 -63z m175 6 l0 -59 -36 -7 c-20 -3 -39 -4 -42 0 -7 6 -3
106 4 117 3 5 21 8 40 8 l34 0 0 -59z m-375 -11 l0 -55 -41 -3 -42 -3 5 48 c7
71 9 75 45 71 33 -3 33 -3 33 -58z m-117 -7 c3 -51 2 -53 -22 -53 -15 0 -29 0
-33 0 -5 0 -10 25 -11 56 l-4 55 34 -3 c32 -3 33 -4 36 -55z m692 -83 c0 -5
-5 -32 -11 -60 -10 -46 -13 -50 -40 -50 -30 0 -30 0 -27 52 3 46 6 53 28 59
37 10 50 10 50 -1z m72 5 c9 -4 12 -21 10 -60 -3 -45 -7 -55 -22 -55 -25 0
-53 29 -46 47 3 8 6 28 6 44 0 29 17 37 52 24z m-559 -17 c24 -18 13 -105 -15
-114 -30 -9 -48 14 -48 60 0 59 26 81 63 54z m115 -27 c7 -69 -21 -104 -56
-69 -16 16 -16 95 1 102 32 13 52 1 55 -33z m162 -16 l0 -55 -34 0 c-28 0 -35
4 -40 25 -9 34 2 73 22 78 48 13 52 9 52 -48z m98 9 c-6 -87 -68 -84 -68 2 0
44 0 44 36 44 l35 0 -3 -46z m-583 -24 c0 -55 0 -55 -32 -58 -33 -3 -33 -3
-33 42 0 63 8 78 39 74 25 -3 26 -6 26 -58z m115 0 c0 -64 -4 -68 -57 -54 -19
5 -23 13 -23 44 0 58 8 70 46 70 l34 0 0 -60z m610 -70 c-44 -11 -310 -17
-310 -8 0 10 65 14 215 15 88 1 119 -2 95 -7z m41 -342 c-1 -169 -6 -320 -10
-335 l-7 -28 -177 -3 -177 -2 0 163 c0 246 11 465 25 484 9 13 40 17 151 23
76 4 152 7 168 6 l30 -1 -3 -307z m-449 280 c2 -7 2 -158 0 -336 l-4 -322
-192 2 -191 3 -3 308 c-1 197 1 315 8 327 9 17 24 20 113 23 250 7 265 7 269
-5z m445 -690 c18 -7 33 -15 33 -20 0 -9 -899 -16 -919 -7 -18 8 13 19 84 29
89 13 765 11 802 -2z"/>
<path d="M732 6093 c-7 -115 -14 -365 -16 -558 -3 -192 -10 -677 -17 -1077 -7
-401 -9 -731 -6 -735 4 -3 10 -4 13 0 4 3 10 230 16 504 5 273 11 499 13 501
2 2 107 7 234 10 148 3 228 9 224 15 -4 6 -86 8 -224 5 -153 -4 -222 -2 -228
6 -9 12 2 1063 15 1359 5 116 4 177 -3 177 -6 0 -14 -83 -21 -207z"/>
<path d="M3690 4328 c0 -7 7 -22 15 -32 20 -27 19 -49 -6 -80 -16 -21 -17 -26
-5 -26 22 0 46 40 46 75 0 31 -24 75 -41 75 -5 0 -9 -6 -9 -12z"/>
<path d="M3780 4320 c-38 -38 -19 -130 26 -130 13 0 13 3 0 22 -20 28 -20 68
-1 94 28 37 9 48 -25 14z"/>
<path d="M3836 4321 c-3 -5 1 -12 10 -15 14 -5 16 -16 11 -59 l-6 -52 19 24
c22 26 25 47 10 85 -9 26 -33 35 -44 17z"/>
<path d="M3942 4167 c-31 -14 -48 -78 -30 -115 7 -15 21 -28 31 -30 17 -3 17
-2 0 33 -17 36 -17 38 5 77 12 23 21 42 20 43 -2 2 -13 -2 -26 -8z"/>
<path d="M3770 4151 c-19 -36 -12 -90 15 -116 30 -31 40 -31 71 0 21 21 25 33
22 72 -4 66 -28 70 -28 5 0 -64 -23 -88 -51 -53 -24 30 -24 53 1 76 11 10 17
22 14 26 -9 15 -33 10 -44 -10z"/>
<path d="M3714 4133 c5 -22 0 -38 -19 -67 -30 -45 -30 -46 -4 -39 11 3 27 16
35 29 18 27 15 96 -5 102 -10 3 -12 -3 -7 -25z"/>
<path d="M3565 3966 c16 -37 12 -59 -13 -89 -8 -9 -12 -20 -9 -23 12 -13 38 6
52 38 10 24 14 28 15 13 0 -23 26 -65 40 -65 5 0 4 14 -1 32 -15 53 -11 87 11
100 27 17 25 30 -2 26 -12 -2 -28 -13 -34 -26 l-11 -23 -17 26 c-9 14 -23 25
-31 25 -12 0 -12 -5 0 -34z"/>
<path d="M3710 3985 c-1 -5 -1 -21 0 -33 1 -13 -4 -37 -11 -53 -12 -31 -6 -50
11 -33 21 21 28 70 15 100 -8 16 -14 25 -15 19z"/>
<path d="M3788 3978 c-23 -19 -32 -98 -14 -123 18 -25 31 -14 17 13 -17 32
-13 58 15 91 26 32 14 44 -18 19z"/>
<path d="M3914 3954 c-17 -40 -13 -74 12 -98 27 -28 33 -17 18 29 -14 40 -14
48 -1 75 14 26 14 30 1 30 -8 0 -22 -16 -30 -36z"/>
<path d="M3863 3936 c2 -35 -3 -50 -22 -70 -21 -22 -22 -26 -7 -32 30 -12 46
15 46 77 0 32 -4 60 -9 64 -5 3 -9 -14 -8 -39z"/>
<path d="M144 3946 c-10 -8 -16 -17 -13 -21 9 -8 59 16 53 26 -7 13 -17 11
-40 -5z"/>
<path d="M240 3796 c-14 -37 -13 -46 5 -40 19 8 30 43 16 57 -7 7 -13 2 -21
-17z"/>
<path d="M3574 3772 c0 -26 -3 -55 -8 -64 -14 -30 12 -21 28 10 15 26 15 26
16 4 0 -48 41 -89 75 -76 39 15 61 119 30 144 -13 11 -15 6 -15 -38 0 -63 -19
-83 -49 -53 -27 27 -26 43 5 80 25 30 25 31 5 31 -12 0 -26 -11 -35 -27 l-14
-28 -7 27 c-12 48 -32 41 -31 -10z"/>
<path d="M199 3723 c-39 -46 -40 -50 -24 -56 10 -4 20 4 31 24 18 37 14 58 -7
32z"/>
<path d="M685 3598 c-3 -57 -5 -265 -3 -462 2 -276 6 -360 16 -364 9 -3 12 94
12 462 0 271 -4 466 -9 466 -5 0 -12 -46 -16 -102z"/>
<path d="M2760 3591 c0 -7 6 -14 13 -16 6 -2 149 -6 317 -9 168 -3 458 -12
645 -20 187 -9 348 -16 358 -16 9 0 17 6 17 14 0 16 -47 19 -610 37 -676 21
-740 22 -740 10z"/>
<path d="M311 3531 c-16 -37 -12 -46 14 -27 15 11 17 18 9 36 -10 23 -10 23
-23 -9z"/>
<path d="M280 3470 c-23 -14 -1 -29 54 -36 57 -8 58 10 2 20 -19 4 -36 11 -38
16 -2 6 -9 6 -18 0z"/>
<path d="M562 3374 c9 -9 21 -13 27 -9 16 10 3 25 -22 25 -20 0 -20 -1 -5 -16z"/>
<path d="M12344 3213 c2 -10 7 -33 11 -51 4 -18 11 -30 16 -26 13 8 11 68 -3
82 -18 18 -30 15 -24 -5z"/>
<path d="M12400 3200 c0 -18 4 -29 10 -25 6 3 10 15 10 25 0 10 -4 22 -10 25
-6 4 -10 -7 -10 -25z"/>
<path d="M12438 3172 c-20 -23 -30 -52 -17 -52 22 0 49 22 49 40 0 27 -15 33
-32 12z"/>
<path d="M2707 3133 c-10 -17 -19 -668 -9 -658 9 10 27 665 18 665 -3 0 -7 -3
-9 -7z"/>
<path d="M12275 3130 c-4 -7 -19 -9 -38 -4 -32 6 -32 6 -14 -14 20 -22 87 -27
87 -6 0 19 -27 37 -35 24z"/>
<path d="M12541 3127 c-1 -10 -8 -20 -16 -23 -16 -6 -21 -44 -7 -44 5 0 17 9
27 20 14 16 16 24 7 42 -9 19 -11 20 -11 5z"/>
<path d="M2530 3000 c0 -73 4 -120 10 -120 6 0 10 47 10 120 0 73 -4 120 -10
120 -6 0 -10 -47 -10 -120z"/>
<path d="M12540 3010 c-37 -34 -34 -51 4 -26 27 17 53 56 37 56 -5 0 -23 -14
-41 -30z"/>
<path d="M12557 2950 c-3 -12 -14 -20 -26 -20 -12 0 -21 -4 -21 -9 0 -15 27
-32 42 -26 15 6 38 46 38 65 0 19 -28 10 -33 -10z"/>
<path d="M12140 2900 c-1 -3 -5 -119 -9 -258 -5 -158 -12 -257 -19 -264 -14
-14 -185 -32 -292 -29 -69 1 -88 5 -105 21 -12 11 -32 20 -45 20 -13 0 -37 12
-53 28 -22 20 -31 23 -35 13 -9 -25 -76 -93 -102 -103 l-25 -10 37 -19 c37
-19 38 -19 93 0 54 19 55 19 55 0 0 -15 7 -19 33 -19 18 0 39 -6 45 -12 10
-10 17 -10 33 1 15 9 24 10 32 2 17 -17 29 -13 23 7 -4 12 2 21 22 29 27 11
53 11 253 -1 95 -6 108 -5 129 12 28 23 21 52 -12 52 -52 0 -52 1 -46 252 3
128 2 244 -2 258 -5 14 -9 23 -10 20z m-496 -538 l29 -22 -40 0 c-35 0 -41 3
-45 25 -6 28 0 38 16 27 6 -5 24 -18 40 -30z"/>
<path d="M12410 2888 c0 -17 18 -44 24 -37 8 7 -5 49 -15 49 -5 0 -9 -6 -9
-12z"/>
<path d="M1326 2843 c-10 -60 -20 -486 -12 -517 4 -16 9 -26 11 -24 5 4 14
578 10 578 -1 0 -5 -17 -9 -37z"/>
<path d="M12470 2865 c0 -20 42 -36 110 -41 30 -2 64 -5 75 -7 11 -1 21 5 23
14 2 14 -9 18 -57 24 -33 4 -68 4 -79 1 -13 -4 -22 -1 -26 9 -7 20 -46 20 -46
0z"/>
<path d="M512 2788 c20 -28 23 -30 26 -14 3 11 -4 26 -14 33 -31 23 -36 14
-12 -19z"/>
<path d="M10893 2792 c-117 -2 -155 -14 -97 -28 14 -4 117 -3 228 1 110 4 397
7 636 6 277 -1 440 2 450 9 8 5 13 10 10 11 -10 3 -1107 4 -1227 1z"/>
<path d="M380 2771 c0 -16 27 -31 45 -25 15 6 15 9 -6 20 -28 16 -39 17 -39 5z"/>
<path d="M2041 2761 c-17 -30 -13 -41 12 -40 12 0 16 3 10 6 -18 7 -16 23 3
23 9 0 14 5 12 12 -7 20 -26 20 -37 -1z"/>
<path d="M12587 2774 c-3 -4 1 -17 9 -29 14 -22 14 -24 -5 -30 -32 -10 -25
-29 21 -61 l41 -29 -41 -9 c-37 -8 -42 -12 -42 -36 0 -41 9 -42 56 -2 57 47
61 85 12 105 l-33 14 33 7 c40 9 40 17 1 50 -31 27 -41 30 -52 20z"/>
<path d="M4114 2628 l-9 -122 -80 -16 c-90 -17 -135 -40 -158 -80 -15 -25 -21
-27 -64 -23 -26 2 -257 14 -513 28 -256 14 -491 27 -522 30 -48 5 -58 3 -58
-10 0 -13 12 -19 32 -16 4 0 245 -13 535 -29 290 -17 538 -30 550 -30 21 0 23
-4 23 -62 1 -79 17 -58 27 32 11 110 67 140 265 140 122 0 156 13 68 25 -78
11 -83 20 -75 141 4 60 3 104 -3 108 -5 3 -13 -46 -18 -116z"/>
<path d="M60 2733 c-25 -9 -40 -35 -39 -67 1 -21 3 -25 6 -11 3 11 16 35 30
53 13 17 23 32 21 31 -2 0 -10 -3 -18 -6z"/>
<path d="M685 2695 c-11 -33 -13 -221 -2 -231 15 -15 18 8 15 132 -2 102 -5
123 -13 99z"/>
<path d="M519 2683 c-11 -3 -15 -11 -12 -24 7 -24 15 -24 36 -1 27 30 20 37
-24 25z"/>
<path d="M2511 2659 c-12 -35 -1 -59 26 -59 11 0 12 9 7 38 -9 52 -20 59 -33
21z"/>
<path d="M328 2653 c-23 -6 -23 -26 1 -47 17 -16 19 -16 25 6 8 31 8 48 -1 47
-5 -1 -16 -3 -25 -6z"/>
<path d="M11190 2615 c0 -12 35 -75 42 -75 11 0 10 5 -6 45 -8 19 -20 35 -25
35 -6 0 -11 -2 -11 -5z"/>
<path d="M2314 2599 c-28 -4 -61 -13 -75 -18 -23 -9 -23 -10 21 -29 45 -21 63
-21 42 0 -22 22 -12 27 68 34 44 3 80 11 80 15 0 11 -66 10 -136 -2z"/>
<path d="M11139 2582 c5 -10 17 -24 25 -32 24 -19 21 12 -2 33 -24 22 -35 21
-23 -1z"/>
<path d="M2588 2453 c2 -65 6 -120 8 -122 3 -3 9 0 15 6 18 18 8 199 -12 219
-15 14 -16 7 -11 -103z"/>
<path d="M2152 2524 c-7 -14 -15 -91 -19 -172 l-6 -147 -176 2 c-97 2 -193 8
-213 13 -26 8 -44 8 -57 0 -29 -15 -102 -12 -135 5 -24 13 -35 14 -57 4 -16
-6 -51 -9 -78 -7 -28 1 -51 0 -51 -4 0 -5 39 -8 88 -8 48 0 103 -5 122 -10 19
-6 80 -10 135 -10 141 -1 425 -21 425 -31 0 -5 -9 -14 -20 -21 -25 -16 -25
-30 -2 -51 26 -23 29 -22 43 20 8 26 10 78 5 177 -4 88 -2 163 5 199 12 65 8
80 -9 41z"/>
<path d="M11226 2519 c-36 -28 -24 -41 30 -33 45 6 63 -9 25 -21 -11 -3 -25
-13 -32 -21 -10 -12 -9 -18 4 -31 14 -15 14 -17 -6 -34 -29 -23 -14 -36 18
-15 18 12 25 25 25 50 0 18 7 39 15 46 18 15 19 31 3 52 -22 27 -53 30 -82 7z"/>
<path d="M12555 2520 c3 -5 24 -10 45 -10 32 0 39 -4 42 -21 3 -25 33 -48 45
-35 4 5 2 11 -5 13 -7 3 -19 18 -27 34 -14 26 -21 29 -61 29 -28 0 -43 -4 -39
-10z"/>
<path d="M4280 2465 c0 -3 8 -22 17 -43 13 -28 19 -76 23 -199 7 -224 -14
-208 276 -209 123 -1 223 0 221 2 -1 2 -34 7 -72 12 -39 6 -84 16 -102 23 -26
10 -38 10 -72 -1 -37 -12 -50 -11 -123 9 -45 12 -84 24 -87 27 -3 3 -9 72 -12
152 -6 152 -25 232 -55 232 -8 0 -14 -2 -14 -5z"/>
<path d="M12210 2447 c0 -14 19 -37 31 -37 3 0 4 11 1 25 -4 25 -32 36 -32 12z"/>
<path d="M670 2411 c0 -21 -6 -32 -20 -36 -11 -3 -20 -13 -20 -21 0 -8 -8 -14
-17 -14 -12 0 -14 -3 -6 -11 5 -5 30 -9 54 -7 43 3 44 4 42 36 -2 47 -12 82
-23 82 -6 0 -10 -13 -10 -29z"/>
<path d="M2655 2420 c-8 -13 3 -30 21 -30 18 0 18 14 0 29 -10 8 -16 9 -21 1z"/>
<path d="M3990 2425 c0 -2 9 -19 20 -37 18 -30 20 -51 20 -240 0 -130 4 -209
10 -213 6 -4 27 -1 46 5 29 10 45 10 75 0 29 -10 45 -10 61 -2 20 9 17 11 -27
12 -46 1 -48 2 -31 15 29 22 17 25 -46 10 l-57 -13 -3 208 c-3 205 -3 209 -27
234 -22 24 -41 33 -41 21z"/>
<path d="M5307 2350 c-13 -147 -13 -323 -1 -327 18 -6 19 11 14 217 -5 176 -6
187 -13 110z"/>
<path d="M2320 2251 c0 -94 4 -172 9 -175 22 -14 29 22 21 104 -5 47 -9 120
-9 163 -1 44 -5 77 -11 77 -6 0 -10 -63 -10 -169z"/>
<path d="M12648 2404 c-16 -8 -28 -17 -28 -19 0 -2 14 -12 31 -20 30 -16 31
-16 24 3 -3 11 -1 23 5 27 12 7 14 25 3 25 -5 -1 -20 -8 -35 -16z"/>
<path d="M75 2390 c3 -5 12 -10 20 -10 8 0 17 5 20 10 4 6 -5 10 -20 10 -15 0
-24 -4 -20 -10z"/>
<path d="M487 2383 c-11 -10 14 -33 36 -33 19 0 20 1 2 20 -19 21 -28 24 -38
13z"/>
<path d="M11179 2358 c-1 -7 -1 -16 0 -20 0 -4 -5 -5 -13 -2 -9 4 -18 -7 -26
-30 -20 -62 -2 -66 88 -24 23 11 48 17 55 14 6 -4 23 -13 36 -21 17 -9 30 -11
42 -4 10 5 31 9 48 9 16 0 33 5 36 10 3 6 0 10 -9 10 -8 0 -16 5 -18 11 -2 6
-46 13 -101 16 -81 5 -100 9 -108 24 -11 22 -28 25 -30 7z"/>
<path d="M1201 2344 c-28 -13 -41 -13 -82 -3 -27 7 -52 10 -55 6 -12 -12 1
-17 63 -28 51 -9 66 -8 93 6 17 9 39 14 47 11 9 -4 13 -1 11 6 -6 19 -38 19
-77 2z"/>
<path d="M292 2334 c17 -17 17 -19 -5 -42 -21 -23 -22 -24 -3 -37 10 -8 23
-12 29 -8 5 3 3 9 -4 14 -11 7 -6 16 21 38 19 16 33 32 30 34 -3 3 -23 8 -45
12 -38 7 -39 7 -23 -11z"/>
<path d="M460 2342 c0 -5 14 -21 30 -37 22 -21 33 -26 41 -18 9 9 8 16 -4 27
-19 19 -67 39 -67 28z"/>
<path d="M826 2342 c-3 -5 9 -16 25 -26 24 -14 33 -15 45 -5 12 10 13 14 2 19
-25 13 -67 20 -72 12z"/>
<path d="M2648 2339 c-27 -17 52 -30 256 -44 212 -14 370 -25 721 -50 114 -8
194 -10 199 -5 6 6 4 11 -5 14 -8 3 -178 16 -379 31 -555 39 -649 46 -717 54
-34 4 -68 4 -75 0z"/>
<path d="M2555 2300 c-7 -23 2 -43 16 -35 12 8 12 55 0 55 -5 0 -12 -9 -16
-20z"/>
<path d="M1306 2271 c-21 -23 -14 -54 10 -49 28 5 41 35 23 53 -14 14 -17 14
-33 -4z"/>
<path d="M563 2273 c-13 -2 -23 -8 -23 -13 0 -12 39 -20 98 -20 35 0 52 -4 52
-12 0 -9 4 -8 10 2 16 25 12 29 -32 27 -25 -1 -43 3 -46 11 -4 12 -17 13 -59
5z"/>
<path d="M2442 2223 c3 -16 27 -20 248 -34 268 -18 586 -42 863 -64 208 -17
267 -19 267 -6 0 12 -50 18 -190 25 -253 13 -753 53 -1133 91 -53 6 -58 4 -55
-12z"/>
<path d="M9326 2228 c4 -7 16 -19 26 -26 10 -7 18 -22 18 -33 0 -25 16 -25 30
0 14 27 13 31 -8 31 -11 0 -27 9 -37 20 -20 22 -41 27 -29 8z"/>
<path d="M9255 2220 c-7 -11 44 -34 53 -25 6 5 -27 34 -40 35 -4 0 -10 -5 -13
-10z"/>
<path d="M3845 2125 c-12 -154 -12 -160 5 -160 18 0 25 119 12 205 l-9 55 -8
-100z"/>
<path d="M10692 2190 c-5 -14 -11 -34 -13 -45 -5 -27 -61 -52 -144 -65 -71
-11 -340 -30 -495 -36 -67 -2 -254 -11 -292 -14 -5 0 -8 -11 -8 -24 0 -20 6
-24 40 -30 27 -4 50 -1 69 9 16 8 44 14 62 13 19 0 52 4 75 11 42 11 253 16
364 8 53 -4 71 -1 99 16 41 25 114 26 179 3 23 -8 42 -11 42 -6 0 4 -6 11 -12
13 -7 3 1 6 18 6 16 1 39 7 49 15 17 12 18 18 7 67 -17 74 -28 91 -40 59z"/>
<path d="M2387 2146 c-24 -54 -17 -66 37 -66 24 0 104 -6 178 -14 73 -8 201
-17 283 -21 83 -3 240 -15 350 -25 110 -11 270 -24 355 -30 85 -6 170 -13 188
-16 25 -5 32 -3 32 10 0 9 -7 16 -16 16 -18 0 -428 34 -669 55 -196 17 -672
55 -697 55 -12 0 -18 10 -20 38 l-3 37 -18 -39z"/>
<path d="M1527 2138 c-8 -27 -1 -38 24 -38 18 0 19 2 4 30 -19 36 -21 37 -28
8z"/>
<path d="M1834 2145 c-8 -20 5 -46 26 -53 10 -4 11 3 6 24 -10 39 -24 52 -32
29z"/>
<path d="M1440 2126 c0 -14 4 -27 9 -31 12 -7 25 31 16 45 -11 18 -25 10 -25
-14z"/>
<path d="M1736 2134 c-7 -19 10 -44 31 -44 10 0 13 9 11 27 -3 32 -32 43 -42
17z"/>
<path d="M1890 2136 c-17 -17 -12 -25 30 -46 36 -18 41 -19 46 -5 4 9 13 14
21 11 8 -3 28 1 45 10 23 12 27 19 19 27 -15 15 -147 17 -161 3z"/>
<path d="M9400 2140 c-8 -5 -12 -12 -9 -15 8 -8 39 5 39 16 0 11 -11 11 -30
-1z"/>
<path d="M9185 2130 c-4 -6 8 -10 30 -10 22 0 34 4 30 10 -3 6 -17 10 -30 10
-13 0 -27 -4 -30 -10z"/>
<path d="M9327 2104 c-9 -9 36 -42 74 -56 25 -8 33 -8 40 3 15 24 10 29 -31
35 -22 4 -43 11 -46 15 -6 10 -28 12 -37 3z"/>
<path d="M8637 2074 c-4 -5 -24 -7 -43 -6 -45 3 -42 -19 5 -32 20 -6 30 -14
27 -23 -4 -8 2 -13 17 -13 12 0 33 -3 46 -7 l23 -6 -18 29 -18 29 25 -22 c20
-18 34 -22 77 -19 30 3 56 6 58 9 12 12 -63 52 -101 53 -22 0 -51 4 -65 8 -14
4 -29 4 -33 0z"/>
<path d="M7330 2047 c-35 -22 -39 -32 -8 -24 12 4 27 2 32 -3 15 -11 146 4
177 21 28 16 25 16 -88 22 -68 3 -87 0 -113 -16z"/>
<path d="M8315 2060 c-4 -6 -48 -8 -121 -3 -63 3 -114 4 -114 1 0 -4 17 -16
37 -28 33 -19 42 -21 76 -10 23 6 60 9 91 5 41 -5 55 -3 65 9 7 8 10 20 6 26
-8 13 -32 13 -40 0z"/>
<path d="M8385 2060 c-3 -5 8 -16 24 -25 34 -17 97 -20 106 -5 3 6 -3 10 -14
10 -11 0 -26 7 -35 15 -16 17 -72 20 -81 5z"/>
<path d="M9131 2050 c18 -28 69 -35 77 -11 3 9 -1 11 -16 7 -13 -5 -32 0 -49
11 l-28 18 16 -25z"/>
<path d="M6641 2040 c-30 -11 -60 -25 -65 -31 -8 -9 -6 -10 6 -6 10 3 20 2 23
-3 10 -16 34 -11 57 12 14 14 23 18 26 10 2 -8 42 -12 133 -12 84 0 128 4 124
10 -3 6 -39 10 -79 10 -40 0 -95 7 -122 15 -27 8 -49 15 -49 15 0 -1 -24 -10
-54 -20z"/>
<path d="M7622 2044 c-35 -25 -26 -31 31 -20 62 12 66 14 47 26 -22 14 -53 12
-78 -6z"/>
<path d="M11285 2050 c-4 -6 -23 -18 -43 -28 -20 -9 -38 -26 -41 -37 -2 -11
-11 -25 -20 -31 -14 -11 -12 -19 22 -82 20 -38 37 -72 37 -75 0 -4 -13 -4 -29
-1 -26 6 -28 4 -24 -20 3 -15 1 -26 -6 -26 -18 0 -13 -18 7 -22 17 -4 82 54
82 74 0 6 -10 26 -21 45 -18 29 -19 37 -8 44 8 5 10 9 4 9 -5 0 -18 7 -28 14
-17 13 -17 15 0 45 22 37 72 58 103 41 24 -13 25 -7 3 31 -18 31 -28 35 -38
19z"/>
<path d="M7148 2040 c-96 -9 -131 -18 -123 -30 8 -13 100 -13 145 0 34 9 87
41 65 38 -5 0 -45 -4 -87 -8z"/>
<path d="M7750 2040 c0 -5 16 -10 35 -10 19 0 35 5 35 10 0 6 -16 10 -35 10
-19 0 -35 -4 -35 -10z"/>
<path d="M8878 2032 c-6 -7 -8 -16 -4 -20 12 -11 145 -18 163 -8 10 5 29 4 49
-3 23 -8 39 -9 51 -2 15 8 15 10 3 14 -8 2 -33 10 -55 17 -54 18 -193 19 -207
2z"/>
<path d="M9245 2029 l-19 -20 69 3 c57 2 70 6 73 21 5 27 -98 25 -123 -4z"/>
<path d="M9461 2034 c-19 -8 -44 -13 -57 -10 -13 3 -25 2 -29 -3 -9 -16 32
-32 61 -25 14 4 36 1 49 -6 19 -10 27 -10 46 4 30 21 98 21 128 0 19 -14 25
-14 32 -3 18 28 8 36 -53 43 -35 3 -81 8 -103 11 -24 3 -53 -2 -74 -11z"/>
<path d="M11380 2026 c0 -19 5 -26 18 -26 21 0 44 -42 36 -65 -4 -8 0 -22 7
-31 11 -14 10 -18 -5 -29 -27 -20 -9 -38 31 -32 40 7 63 0 63 -19 0 -10 -8
-12 -31 -7 -25 5 -31 3 -27 -8 6 -18 51 -34 72 -26 11 4 16 19 16 46 0 25 5
41 15 45 8 3 15 17 15 31 0 14 5 25 10 25 6 0 10 11 10 25 0 16 6 25 15 25 9
0 19 9 23 20 8 20 8 20 32 -5 13 -14 29 -25 37 -25 12 0 17 -12 14 -32 0 -4 8
-12 19 -18 13 -7 20 -21 20 -40 0 -18 9 -39 22 -52 15 -15 22 -32 20 -53 -2
-29 -2 -29 13 -11 21 27 19 40 -10 74 -14 17 -25 39 -25 49 0 39 -101 153
-135 153 -24 0 -65 -19 -70 -32 -2 -7 -9 -32 -15 -56 -9 -35 -17 -45 -47 -57
-19 -8 -37 -15 -38 -15 -1 0 -10 27 -19 59 -13 45 -25 65 -51 86 l-35 26 0
-25z"/>
<path d="M4283 2027 c-27 -12 -30 -27 -5 -27 25 0 42 14 34 26 -5 8 -14 8 -29
1z"/>
<path d="M4882 2028 c2 -6 15 -20 29 -30 24 -18 28 -18 74 -2 35 11 65 14 102
10 29 -3 53 -2 53 3 0 11 -141 24 -173 16 -14 -4 -28 -2 -31 4 -10 15 -59 14
-54 -1z"/>
<path d="M5201 2021 c-49 -20 -46 -25 16 -36 40 -6 44 -5 53 20 5 14 10 28 10
31 0 9 -37 2 -79 -15z"/>
<path d="M5765 2008 c-49 -5 -167 -6 -262 -3 -162 6 -205 0 -171 -22 19 -12
567 -4 607 9 24 8 30 13 20 19 -17 10 -71 9 -194 -3z"/>
<path d="M6142 2010 c-45 -4 -86 -10 -89 -14 -8 -8 220 -8 365 1 61 3 112 10
112 15 0 9 -268 8 -388 -2z"/>
<path d="M4561 1946 c-17 -20 -59 -26 -72 -10 -6 8 -18 14 -25 14 -20 0 -17
-28 4 -38 24 -13 225 -25 218 -13 -4 5 -19 12 -36 16 -16 3 -40 15 -53 26 -21
16 -27 16 -36 5z"/>
<path d="M3885 1940 c3 -5 17 -10 31 -10 13 0 24 5 24 10 0 6 -14 10 -31 10
-17 0 -28 -4 -24 -10z"/>
<path d="M4355 1940 c-6 -10 42 -46 51 -37 8 8 -19 47 -33 47 -6 0 -14 -4 -18
-10z"/>
<path d="M4701 1924 c17 -21 69 -47 77 -39 11 10 -47 55 -70 55 -17 0 -19 -2
-7 -16z"/>
<path d="M4865 1900 c10 -17 84 -35 96 -23 8 8 -4 14 -41 22 -62 13 -63 13
-55 1z"/>
<path d="M5265 1891 c-4 -7 -16 -16 -28 -20 -18 -7 -14 -10 26 -24 52 -18 60
-9 28 32 -13 17 -20 20 -26 12z"/>
<path d="M5096 1871 c5 -5 25 -12 44 -15 33 -7 34 -6 16 9 -21 16 -77 22 -60
6z"/>
<path d="M5365 1871 c-7 -12 15 -61 27 -61 15 0 20 28 8 49 -11 22 -25 27 -35
12z"/>
<path d="M5440 1840 c0 -14 7 -20 22 -20 20 0 21 1 3 20 -10 11 -20 20 -22 20
-1 0 -3 -9 -3 -20z"/>
<path d="M11731 1820 c0 -42 1 -44 14 -26 8 11 15 23 15 26 0 3 -7 15 -15 26
-13 18 -14 16 -14 -26z"/>
<path d="M6120 1821 c0 -23 25 -46 35 -32 7 13 -12 51 -25 51 -6 0 -10 -8 -10
-19z"/>
<path d="M5910 1811 c0 -17 12 -41 20 -41 4 0 10 11 12 25 4 19 1 25 -13 25
-11 0 -19 -4 -19 -9z"/>
<path d="M5990 1806 c0 -20 27 -39 46 -32 14 5 13 9 -9 26 -30 24 -37 25 -37
6z"/>
<path d="M6305 1800 c-22 -25 -18 -30 18 -23 30 6 34 15 14 32 -11 8 -18 6
-32 -9z"/>
<path d="M11340 1812 c0 -19 27 -42 58 -48 33 -7 38 -1 26 30 -5 13 -9 14 -20
5 -11 -9 -18 -8 -32 5 -20 17 -32 21 -32 8z"/>
<path d="M6072 1793 c2 -10 14 -20 28 -22 25 -3 25 -3 6 18 -23 26 -39 27 -34
4z"/>
<path d="M6627 1793 c-11 -10 -8 -51 3 -58 6 -4 10 8 10 29 0 37 -2 41 -13 29z"/>
<path d="M6706 1777 c-14 -10 -17 -21 -11 -45 8 -39 21 -41 29 -4 4 15 9 35
12 45 6 20 -5 22 -30 4z"/>
<path d="M11857 1783 c-4 -3 -2 -12 4 -19 7 -9 7 -19 -1 -33 -12 -23 -1 -28
18 -9 16 16 15 68 -1 68 -8 0 -17 -3 -20 -7z"/>
<path d="M6779 1752 c13 -24 50 -52 68 -52 34 0 -9 56 -51 66 -26 6 -27 5 -17
-14z"/>
<path d="M11446 1762 c-3 -6 1 -15 8 -21 8 -7 17 -8 20 -3 3 6 -1 15 -8 21 -8
7 -17 8 -20 3z"/>
<path d="M6880 1732 c0 -12 8 -23 21 -27 31 -10 32 -1 4 25 -25 23 -25 23 -25
2z"/>
<path d="M6987 1733 c-4 -3 -7 -14 -7 -24 0 -18 44 -38 72 -31 14 3 11 9 -16
33 -36 31 -39 33 -49 22z"/>
<path d="M7365 1728 c-3 -9 -13 -14 -20 -12 -20 8 -40 -33 -24 -52 16 -20 27
-18 34 7 6 19 8 20 26 3 23 -21 25 -5 5 41 -11 25 -15 27 -21 13z"/>
<path d="M7085 1717 c-4 -10 -3 -23 4 -30 16 -16 23 -3 12 24 -8 22 -10 22
-16 6z"/>
<path d="M7175 1699 c-6 -19 0 -38 9 -28 10 12 16 49 7 49 -5 0 -13 -9 -16
-21z"/>
<path d="M11887 1686 c-33 -28 -40 -46 -16 -46 10 0 63 69 58 74 -2 2 -21 -10
-42 -28z"/>
<path d="M11142 1687 c-11 -13 2 -91 23 -141 9 -20 -1 -20 -47 -1 -24 10 -49
-42 -27 -55 10 -7 15 -4 17 10 3 15 9 18 37 13 46 -7 53 12 32 85 -14 50 -14
59 -1 73 8 8 11 19 7 22 -10 11 -30 8 -41 -6z"/>
<path d="M7492 1648 c2 -19 10 -24 46 -26 45 -3 48 -1 31 29 -8 17 -13 18 -25
8 -11 -9 -18 -9 -26 -1 -19 19 -30 14 -26 -10z"/>
<path d="M7602 1654 c2 -11 11 -20 22 -22 13 -3 17 1 14 14 -2 11 -11 20 -22
22 -13 3 -17 -1 -14 -14z"/>
<path d="M11474 1649 c-35 -38 -53 -43 -74 -17 -24 30 -38 16 -16 -17 27 -42
101 -25 119 27 9 26 -8 30 -29 7z"/>
<path d="M11795 1650 c-6 -10 -1 -48 11 -92 5 -15 -1 -18 -35 -18 -43 0 -51
-9 -26 -30 13 -11 12 -14 -6 -29 -21 -17 -20 -17 36 -55 31 -20 63 -35 70 -32
9 3 12 0 8 -10 -7 -19 12 -18 31 2 24 23 21 58 -4 51 -20 -5 -70 26 -70 44 0
5 9 9 20 9 26 0 80 27 80 40 0 5 14 22 31 38 28 26 29 30 18 56 -8 18 -18 25
-28 21 -8 -3 -34 -9 -58 -12 -36 -5 -43 -3 -43 11 0 18 -25 22 -35 6z m79 -86
c23 -9 20 -21 -10 -40 -32 -22 -52 -7 -32 25 14 23 18 24 42 15z"/>
<path d="M11697 1602 c-22 -24 -21 -32 3 -32 16 0 40 26 40 44 0 13 -28 5 -43
-12z"/>
<path d="M1212 1469 c-8 -21 -6 -26 22 -41 46 -25 57 -5 19 34 l-32 32 -9 -25z"/>
<path d="M8659 1459 l-24 -19 36 0 c23 0 39 5 42 14 9 22 -27 25 -54 5z"/>
<path d="M1000 1456 c0 -17 23 -27 39 -17 8 5 3 11 -14 19 -20 9 -25 9 -25 -2z"/>
<path d="M8997 1433 c-12 -12 -8 -20 18 -31 20 -9 25 -9 25 1 0 24 -29 44 -43
30z"/>
<path d="M9113 1420 c-19 -29 -17 -48 3 -28 9 8 14 23 12 32 -3 14 -5 14 -15
-4z"/>
<path d="M1810 1412 c0 -11 18 -27 43 -35 28 -10 20 7 -13 26 -16 10 -30 14
-30 9z"/>
<path d="M11036 1411 c-20 -31 62 -74 99 -53 16 8 15 11 -12 16 -17 4 -39 16
-49 27 -19 21 -30 24 -38 10z"/>
<path d="M9186 1394 c-22 -21 -22 -52 -1 -34 8 7 28 10 45 8 37 -6 40 14 5 30
-32 15 -31 15 -49 -4z"/>
<path d="M2285 1380 c-8 -26 4 -48 16 -29 12 19 11 49 0 49 -5 0 -12 -9 -16
-20z"/>
<path d="M9288 1389 c-10 -5 -18 -19 -18 -29 0 -22 15 -27 24 -7 3 8 9 6 20
-7 21 -27 28 -16 15 22 -12 35 -15 36 -41 21z"/>
<path d="M11687 1375 c10 -13 24 -25 32 -25 10 0 7 8 -9 25 -30 32 -46 32 -23
0z"/>
<path d="M2366 1371 c-18 -20 -21 -37 -6 -46 15 -9 40 14 40 36 0 26 -15 31
-34 10z"/>
<path d="M11540 1372 c0 -7 -17 -21 -37 -30 l-38 -17 42 -3 c38 -3 43 -6 57
-43 21 -52 20 -81 -4 -112 -16 -20 -17 -27 -8 -34 18 -11 150 -11 166 0 17 13
15 25 -8 32 -15 5 -18 12 -14 34 3 16 1 38 -5 50 -10 17 -9 21 5 21 9 0 18 -8
21 -18 4 -16 14 -19 70 -18 54 1 68 5 79 21 17 27 30 105 16 105 -18 0 -43
-50 -37 -71 6 -19 4 -20 -22 -15 -15 3 -59 11 -97 17 -66 11 -70 11 -86 -11
l-17 -22 -26 32 c-15 17 -27 37 -27 44 0 17 -29 55 -30 38z"/>
<path d="M2460 1341 c-22 -43 -7 -66 24 -35 18 18 18 17 10 38 -8 21 -21 20
-34 -3z"/>
<path d="M9367 1340 c6 -22 21 -35 29 -27 7 7 -15 47 -25 47 -5 0 -7 -9 -4
-20z"/>
<path d="M9437 1345 c-3 -7 2 -24 13 -37 16 -20 19 -21 25 -6 7 18 -10 58 -24
58 -5 0 -11 -7 -14 -15z"/>
<path d="M9520 1331 c0 -16 5 -33 10 -36 6 -4 10 6 10 24 0 16 -4 33 -10 36
-6 4 -10 -6 -10 -24z"/>
<path d="M11180 1339 c-7 -11 -9 -24 -5 -27 7 -7 35 25 35 40 0 16 -19 8 -30
-13z"/>
<path d="M11760 1345 c13 -16 70 -21 70 -6 0 9 -34 21 -64 21 -15 0 -16 -3 -6
-15z"/>
<path d="M2526 1322 c-21 -41 -21 -59 0 -42 25 21 37 51 26 62 -7 7 -16 0 -26
-20z"/>
<path d="M2597 1333 c-4 -3 -7 -12 -7 -19 0 -11 5 -11 25 -2 14 6 25 15 25 20
0 10 -34 11 -43 1z"/>
<path d="M11290 1297 c0 -39 -15 -57 -47 -57 -28 0 -29 11 -3 35 20 18 27 45
12 45 -20 0 -123 -125 -110 -134 2 -2 22 -10 46 -19 40 -16 47 -16 107 0 36 9
65 21 65 26 0 16 -55 137 -62 137 -5 0 -8 -15 -8 -33z"/>
<path d="M2685 1309 c-4 -6 -5 -13 -2 -16 8 -7 47 7 47 18 0 13 -37 11 -45 -2z"/>
<path d="M9744 1296 c-10 -40 -2 -55 24 -45 22 8 22 10 7 39 -19 36 -23 37
-31 6z"/>
<path d="M2820 1290 c-8 -5 -12 -11 -9 -14 7 -8 49 5 49 15 0 12 -21 11 -40
-1z"/>
<path d="M9662 1288 c-19 -19 -14 -28 13 -28 27 0 32 12 12 29 -10 8 -17 7
-25 -1z"/>
<path d="M9930 1295 c0 -6 4 -15 9 -20 5 -6 11 -25 13 -44 3 -33 3 -33 21 -13
18 20 18 21 -12 54 -17 18 -31 28 -31 23z"/>
<path d="M11510 1262 c0 -11 7 -25 16 -33 14 -11 15 -9 12 16 -3 32 -28 47
-28 17z"/>
<path d="M2985 1261 c-7 -12 12 -24 25 -16 11 7 4 25 -10 25 -5 0 -11 -4 -15
-9z"/>
<path d="M3080 1256 c0 -20 14 -28 36 -19 16 6 16 7 -2 20 -23 17 -34 17 -34
-1z"/>
<path d="M11436 1244 c-20 -51 11 -94 67 -94 25 0 27 2 17 21 -9 16 -18 19
-36 15 -22 -6 -24 -4 -24 34 0 40 -13 53 -24 24z"/>
<path d="M3420 1244 c0 -8 32 -33 43 -34 4 0 3 9 -3 20 -10 18 -40 29 -40 14z"/>
<path d="M3547 1214 c-16 -9 -26 -18 -23 -21 9 -10 54 6 60 22 7 19 -1 18 -37
-1z"/>
<path d="M3644 1206 c-10 -8 -16 -17 -12 -21 7 -7 48 16 48 27 0 12 -14 9 -36
-6z"/>
<path d="M3715 1187 c-12 -10 -15 -16 -6 -21 15 -10 48 2 55 19 7 19 -23 20
-49 2z"/>
<path d="M3839 1181 c-19 -16 -20 -20 -8 -21 17 0 45 27 37 35 -3 3 -16 -3
-29 -14z"/>
<path d="M10184 1185 c-8 -21 4 -35 32 -35 29 0 31 11 6 33 -23 21 -31 21 -38
2z"/>
<path d="M3937 1162 c-10 -10 -14 -21 -11 -25 9 -9 55 23 48 34 -8 14 -19 11
-37 -9z"/>
<path d="M11802 1168 c-14 -14 -16 -35 -4 -42 4 -3 13 8 19 25 12 30 5 37 -15
17z"/>
<path d="M11850 1156 c0 -24 16 -43 26 -33 8 7 -7 57 -17 57 -5 0 -9 -11 -9
-24z"/>
<path d="M4032 1159 c-13 -5 -21 -13 -17 -19 7 -11 55 8 55 22 0 10 -8 9 -38
-3z"/>
<path d="M10453 1149 c-33 -21 -44 -49 -20 -49 17 0 60 45 56 59 -3 6 -18 2
-36 -10z"/>
<path d="M4275 1130 l-29 -30 37 0 c34 0 37 2 37 30 0 17 -4 30 -8 30 -5 0
-21 -13 -37 -30z"/>
<path d="M10320 1145 c0 -10 10 -15 26 -15 22 0 25 2 14 15 -7 8 -19 15 -26
15 -8 0 -14 -7 -14 -15z"/>
<path d="M4097 1143 c-16 -16 -4 -23 41 -23 43 1 46 2 28 15 -21 16 -58 20
-69 8z"/>
<path d="M4392 1136 c-33 -19 -34 -21 -23 -50 14 -34 46 -36 37 -2 -4 15 0 28
9 36 16 13 20 31 8 29 -5 -1 -18 -7 -31 -13z"/>
<path d="M10573 1098 c-12 -18 -20 -34 -17 -37 9 -9 46 36 42 52 -2 12 -9 8
-25 -15z"/>
<path d="M10636 1069 c-10 -17 -15 -33 -12 -36 8 -8 46 27 46 43 0 26 -17 22
-34 -7z"/>
<path d="M4430 1081 c0 -12 50 -44 57 -37 9 8 -27 46 -44 46 -7 0 -13 -4 -13
-9z"/>
<path d="M4810 1048 c0 -13 5 -30 10 -38 7 -11 10 -7 10 17 0 17 -4 35 -10 38
-6 3 -10 -4 -10 -17z"/>
<path d="M10751 1051 c-34 -9 -36 -23 -7 -50 22 -21 24 -21 29 -4 3 10 8 28
12 41 7 23 5 24 -34 13z"/>
<path d="M10886 1019 c-4 -8 -1 -29 5 -45 11 -25 13 -26 16 -9 2 12 0 32 -6
45 -7 20 -10 22 -15 9z"/>
<path d="M10952 1011 c-22 -13 -11 -56 16 -59 19 -3 22 1 22 32 0 36 -11 44
-38 27z"/>
<path d="M5040 986 c0 -8 10 -22 22 -30 26 -18 48 -5 48 28 -1 21 -1 21 -16 1
-14 -19 -16 -19 -25 -2 -12 21 -29 22 -29 3z"/>
<path d="M5147 983 c-10 -9 -8 -43 2 -43 5 0 14 7 21 15 17 21 -4 48 -23 28z"/>
<path d="M5201 975 c1 -11 4 -30 7 -43 6 -20 9 -21 26 -9 17 13 17 14 -8 43
-22 25 -25 26 -25 9z"/>
<path d="M11134 917 c-3 -9 -3 -21 1 -27 10 -16 42 -12 49 6 8 22 8 26 -4 19
-6 -4 -17 -1 -25 5 -12 10 -16 9 -21 -3z"/>
<path d="M5518 909 c-28 -16 -21 -30 7 -17 14 6 25 15 25 20 0 11 -11 10 -32
-3z"/>
<path d="M5613 888 c-13 -6 -23 -15 -23 -20 0 -14 27 -9 51 12 27 22 10 26
-28 8z"/>
<path d="M5674 865 c-18 -15 -16 -16 29 -13 46 3 48 2 44 -19 -2 -13 -3 -23
-2 -23 1 0 19 7 40 16 l37 15 -36 20 c-43 23 -85 24 -112 4z"/>
<path d="M11266 855 c7 -18 14 -18 38 0 19 14 18 15 -12 15 -24 0 -30 -4 -26
-15z"/>
<path d="M5957 811 c-37 -18 -40 -31 -5 -31 10 0 18 -7 18 -15 0 -12 13 -15
55 -15 59 0 74 14 25 24 -20 4 -34 14 -40 31 -5 14 -11 25 -12 24 -2 0 -20 -9
-41 -18z"/>
<path d="M11385 820 c-4 -6 7 -10 25 -10 18 0 29 4 25 10 -3 6 -15 10 -25 10
-10 0 -22 -4 -25 -10z"/>
<path d="M11460 802 c0 -11 7 -25 15 -32 12 -10 15 -9 15 8 0 11 -7 25 -15 32
-12 10 -15 9 -15 -8z"/>
<path d="M11600 741 c0 -17 5 -33 10 -36 6 -4 10 8 10 29 0 20 -4 36 -10 36
-5 0 -10 -13 -10 -29z"/>
<path d="M6235 751 l-50 -6 31 -22 c39 -28 117 -46 165 -38 22 4 40 2 44 -4 6
-11 45 -16 45 -6 0 12 -44 65 -54 65 -5 0 -17 -7 -27 -16 -15 -14 -19 -13 -42
10 -15 14 -34 25 -44 24 -10 0 -40 -4 -68 -7z"/>
<path d="M11646 725 c-3 -9 0 -15 8 -15 24 0 46 12 40 21 -9 14 -41 10 -48 -6z"/>
<path d="M11740 710 c0 -16 7 -20 30 -20 17 0 30 2 30 5 0 2 -13 11 -30 20
-29 15 -30 15 -30 -5z"/>
<path d="M6612 696 l-33 -24 23 -16 c30 -22 40 -20 68 9 l23 25 -22 0 c-16 0
-21 4 -17 15 8 21 -3 18 -42 -9z"/>
<path d="M6510 701 c0 -12 29 -35 36 -28 11 10 -5 37 -21 37 -8 0 -15 -4 -15
-9z"/>
<path d="M6703 635 c-9 -25 2 -27 28 -6 l24 20 -23 1 c-12 0 -25 -7 -29 -15z"/>
<path d="M6820 621 c-12 -24 -13 -51 -1 -51 13 0 43 49 36 60 -10 16 -23 12
-35 -9z"/>
<path d="M6871 594 c-37 -47 -22 -62 19 -19 17 18 21 28 13 36 -7 7 -17 2 -32
-17z"/>
<path d="M6935 572 c-29 -16 -30 -17 -6 -20 25 -4 46 10 40 26 -3 6 -16 4 -34
-6z"/>
<path d="M7254 525 c-7 -18 3 -65 14 -65 5 0 19 11 31 24 l23 24 -31 17 c-28
14 -32 14 -37 0z"/>
<path d="M7342 508 c-32 -32 -2 -78 49 -78 l22 0 -21 23 c-12 13 -22 31 -22
40 0 21 -14 29 -28 15z"/>
<path d="M7491 461 c-8 -5 -10 -17 -5 -34 8 -36 21 -34 26 3 5 34 -1 43 -21
31z"/>
<path d="M7527 434 c-15 -15 -6 -24 24 -24 20 0 29 4 27 13 -5 14 -40 21 -51
11z"/>
<path d="M7643 410 c-36 -15 -28 -33 10 -25 43 10 52 16 36 26 -17 10 -18 10
-46 -1z"/>
<path d="M7745 380 c-15 -29 -11 -37 11 -22 6 4 16 17 23 30 10 18 9 22 -3 22
-9 0 -22 -13 -31 -30z"/>
<path d="M7833 373 c-33 -4 -42 -16 -22 -28 7 -5 4 -14 -7 -26 -26 -29 3 -25
49 6 36 25 51 57 25 53 -7 0 -28 -3 -45 -5z"/>
<path d="M7896 308 c-9 -12 -15 -22 -13 -23 1 0 36 2 77 5 73 5 74 5 40 17
-74 24 -88 24 -104 1z"/>
<path d="M8150 240 c-10 -19 -8 -20 35 -20 50 0 59 15 19 30 -36 14 -42 13
-54 -10z"/>
<path d="M8239 188 c-10 -19 -9 -20 7 -13 59 25 104 12 85 -24 -14 -25 -4 -27
27 -5 32 22 27 42 -15 53 -60 17 -91 14 -104 -11z"/>
<path d="M8603 103 c-36 -17 -43 -33 -15 -33 24 0 56 24 51 38 -3 8 -14 6 -36
-5z"/>
<path d="M8683 77 c-51 -19 -50 -27 5 -27 42 0 54 -4 69 -24 l18 -24 38 19
c48 25 47 37 -5 37 -26 1 -47 7 -54 16 -13 18 -27 19 -71 3z"/>
</g>
</svg>